<svg id="svg" version="1.1" xmlns="http://www.w3.org/2000/svg" xmlns:xlink="http://www.w3.org/1999/xlink" width="130pt" height="150pt" viewBox="0, 0, 400,381.52753108348134"><g id="svgg"><path id="path0" d="M173.241 39.482 C 173.148 39.574,172.026 39.819,170.748 40.025 C 148.601 43.591,146.433 76.017,167.820 83.817 L 170.611 84.835 170.611 91.417 L 170.611 97.999 169.561 98.383 C 168.984 98.594,167.739 98.989,166.794 99.261 C 138.700 107.356,139.395 148.680,167.748 156.009 L 170.420 156.700 170.420 163.885 L 170.420 171.069 168.702 171.622 C 164.304 173.038,156.489 178.890,156.489 180.769 C 156.489 181.025,156.360 181.291,156.202 181.361 C 156.045 181.431,155.551 182.176,155.104 183.015 C 149.365 193.811,154.392 209.221,165.201 213.966 C 169.937 216.045,170.618 216.194,175.382 216.194 C 179.695 216.194,180.424 216.073,183.492 214.847 C 188.334 212.912,191.854 210.053,194.541 205.872 C 195.926 203.716,196.474 202.475,197.652 198.828 C 198.221 197.065,198.221 189.958,197.652 188.195 C 196.473 184.545,195.926 183.308,194.544 181.169 C 191.472 176.417,187.115 173.263,180.812 171.228 C 180.192 171.028,180.144 170.420,180.240 163.854 L 180.344 156.699 182.958 156.015 C 187.889 154.723,192.764 151.912,196.504 148.203 C 197.708 147.008,198.724 146.292,198.985 146.453 C 200.325 147.278,208.311 152.930,208.891 153.465 C 209.510 154.036,209.538 154.404,209.181 157.296 C 208.803 160.352,209.094 165.459,209.754 167.366 C 214.442 180.917,228.763 186.969,241.985 180.988 C 242.719 180.655,243.406 180.288,243.511 180.171 C 243.616 180.055,244.441 179.458,245.344 178.846 C 248.614 176.627,253.435 169.793,253.435 167.378 C 253.435 167.029,253.623 166.393,253.852 165.964 C 254.699 164.382,254.353 156.587,253.299 153.498 C 247.916 137.723,228.354 132.669,216.165 143.904 C 214.141 145.770,214.468 145.796,211.260 143.510 C 209.790 142.463,207.557 140.888,206.298 140.010 C 203.728 138.219,203.007 137.578,203.268 137.317 C 204.709 135.877,205.249 124.264,204.071 120.053 C 203.721 118.802,203.435 117.655,203.435 117.503 C 203.435 117.156,213.347 110.245,214.122 110.050 C 214.437 109.972,215.382 110.567,216.221 111.373 C 217.984 113.065,221.735 115.344,223.894 116.034 C 224.712 116.296,225.776 116.660,226.258 116.843 C 227.532 117.326,235.778 117.251,237.377 116.741 C 244.420 114.496,249.141 110.618,252.085 104.662 C 252.827 103.159,253.435 101.656,253.435 101.321 C 253.435 100.987,253.623 100.363,253.852 99.934 C 254.627 98.486,254.349 90.578,253.425 87.786 C 244.347 60.358,205.078 70.747,209.310 99.457 L 209.595 101.394 206.611 103.443 C 204.969 104.569,203.540 105.601,203.435 105.735 C 203.075 106.196,199.056 108.779,198.699 108.779 C 198.502 108.779,197.404 107.819,196.258 106.645 C 192.464 102.758,188.113 100.378,181.393 98.512 L 179.771 98.061 179.771 91.634 C 179.771 84.421,179.605 84.837,182.883 83.844 C 192.946 80.796,200.541 67.424,197.769 57.634 C 196.634 53.623,196.281 52.725,195.049 50.714 C 191.543 44.988,186.123 41.216,179.542 39.921 C 176.569 39.336,173.594 39.129,173.241 39.482 M180.237 51.960 C 186.360 55.048,188.702 62.466,185.281 67.939 C 178.977 78.026,164.142 74.100,164.126 62.341 C 164.114 53.968,172.942 48.281,180.237 51.960 M236.588 84.317 C 238.945 85.529,240.623 87.171,241.624 89.243 C 242.098 90.226,242.631 91.329,242.808 91.693 C 243.274 92.653,243.203 96.350,242.694 97.597 C 241.465 100.611,241.031 101.331,239.607 102.712 C 238.175 104.103,237.532 104.484,234.619 105.672 C 231.422 106.975,226.390 105.504,223.410 102.394 C 214.821 93.430,225.588 78.661,236.588 84.317 M178.823 112.008 C 194.914 116.200,195.565 136.812,179.794 142.785 C 173.816 145.049,164.548 141.187,161.467 135.147 C 155.230 122.921,165.934 108.651,178.823 112.008 M236.556 150.400 C 241.568 152.904,244.486 159.186,242.701 163.627 C 241.282 167.155,240.501 168.268,238.366 169.801 C 231.944 174.413,223.467 171.693,220.817 164.170 C 217.541 154.866,227.703 145.975,236.556 150.400 M180.379 183.214 C 189.176 188.085,188.878 199.912,179.855 204.040 C 177.731 205.011,173.576 205.323,172.228 204.612 C 171.863 204.420,170.964 204.001,170.229 203.681 C 163.559 200.778,162.023 190.621,167.457 185.343 C 170.791 182.104,176.635 181.141,180.379 183.214 M202.371 250.175 C 200.081 251.440,198.863 253.527,198.857 256.195 C 198.855 257.021,198.637 257.285,197.805 257.467 C 195.848 257.896,195.802 257.949,195.802 259.721 C 195.802 261.384,195.845 261.450,196.933 261.450 C 198.693 261.450,198.855 262.205,198.855 270.411 L 198.855 277.895 201.813 277.783 L 204.771 277.672 204.962 269.656 L 205.153 261.641 207.347 261.527 L 209.542 261.412 209.542 259.523 L 209.542 257.634 207.240 257.634 C 204.735 257.634,204.301 257.271,204.735 255.540 C 205.092 254.117,206.979 253.301,209.221 253.598 L 211.069 253.843 211.069 251.731 L 211.069 249.618 207.156 249.656 C 204.790 249.678,202.899 249.884,202.371 250.175 M214.122 263.740 L 214.122 277.863 217.176 277.863 L 220.229 277.863 220.229 274.648 C 220.229 271.759,220.328 271.315,221.201 270.277 C 222.099 269.211,223.282 268.999,223.282 269.904 C 223.282 270.101,223.455 270.469,223.666 270.722 C 224.393 271.596,227.481 276.303,227.481 276.537 C 227.481 277.464,228.791 277.863,231.843 277.863 C 234.835 277.863,236.335 277.245,234.780 276.654 C 234.596 276.584,233.447 274.981,232.227 273.092 C 231.007 271.202,229.912 269.571,229.794 269.466 C 229.518 269.220,228.739 267.979,228.191 266.913 C 227.858 266.265,227.880 265.952,228.289 265.518 C 229.004 264.761,231.548 261.712,233.334 259.470 L 234.798 257.634 231.377 257.634 L 227.956 257.634 224.464 262.039 C 222.543 264.462,220.804 266.341,220.600 266.215 C 220.378 266.078,220.229 262.690,220.229 257.802 L 220.229 249.618 217.176 249.618 L 214.122 249.618 214.122 263.740 M144.544 251.003 C 144.396 251.151,144.275 257.262,144.275 264.583 L 144.275 277.893 147.424 277.783 L 150.573 277.672 150.763 273.282 C 151.046 266.785,151.962 265.764,154.444 269.179 C 155.245 270.281,156.076 271.381,156.290 271.623 C 156.504 271.865,157.624 273.367,158.779 274.961 L 160.878 277.859 164.790 277.861 C 166.942 277.862,168.702 277.768,168.702 277.652 C 168.702 277.463,164.213 271.450,163.730 270.992 C 163.619 270.887,162.509 269.427,161.264 267.748 C 160.018 266.069,158.864 264.637,158.698 264.567 C 157.689 264.141,158.873 261.876,161.637 258.942 C 161.849 258.716,162.710 257.695,163.550 256.672 C 165.746 253.996,167.698 251.754,168.066 251.484 C 168.665 251.046,167.114 250.763,164.105 250.763 L 161.097 250.763 159.270 252.972 C 158.265 254.187,156.927 255.844,156.298 256.655 C 154.281 259.250,152.664 261.235,151.797 262.177 L 150.954 263.095 150.763 257.024 L 150.573 250.954 147.693 250.844 C 146.109 250.784,144.692 250.855,144.544 251.003 M177.778 257.299 C 173.674 257.712,173.282 257.979,173.282 260.361 L 173.282 262.297 174.523 262.092 C 175.205 261.979,176.536 261.709,177.481 261.491 C 181.084 260.659,185.496 261.890,185.496 263.727 C 185.496 264.631,184.737 264.898,181.489 265.138 C 174.804 265.632,171.374 267.997,171.374 272.113 C 171.374 277.819,178.147 280.440,183.581 276.836 C 185.260 275.722,185.496 275.731,185.496 276.908 C 185.496 277.847,185.547 277.863,188.550 277.863 L 191.603 277.863 191.603 270.276 C 191.603 258.158,189.436 256.124,177.778 257.299 M244.655 257.291 C 240.097 257.752,239.629 258.031,239.769 260.208 C 239.901 262.270,240.017 262.303,244.275 261.487 C 247.170 260.932,250.143 261.333,251.337 262.439 C 253.207 264.172,252.525 264.812,248.478 265.121 C 241.329 265.668,238.166 267.790,238.169 272.037 C 238.172 275.833,241.929 279.110,245.576 278.497 C 247.501 278.173,249.033 277.764,249.237 277.519 C 250.376 276.150,252.290 275.926,252.290 277.163 C 252.290 277.783,252.637 277.863,255.344 277.863 L 258.397 277.863 258.397 270.477 C 258.397 266.171,258.223 262.550,257.979 261.794 C 256.810 258.164,252.022 256.546,244.655 257.291 M185.496 270.616 C 185.496 274.108,181.355 275.893,178.487 273.636 C 175.571 271.343,178.526 268.553,184.065 268.368 L 185.496 268.321 185.496 270.616 M252.213 270.685 C 252.351 273.309,251.536 274.079,248.343 274.341 C 244.051 274.693,242.546 269.804,246.671 268.909 C 248.464 268.520,249.474 268.409,250.763 268.459 L 252.099 268.511 252.213 270.685 " stroke="none" fill="#060606" fill-rule="evenodd"></path><path id="path1" d="M11.546 0.275 C 10.864 0.360,10.305 0.591,10.305 0.788 C 10.305 0.984,9.962 1.145,9.542 1.145 C 9.122 1.145,8.779 1.317,8.779 1.527 C 8.779 1.737,8.600 1.908,8.381 1.908 C 8.162 1.908,7.776 2.083,7.522 2.297 C 7.269 2.510,6.464 3.073,5.734 3.546 C 5.005 4.020,4.020 5.005,3.546 5.734 C 3.073 6.464,2.510 7.269,2.297 7.522 C 2.083 7.776,1.908 8.162,1.908 8.381 C 1.908 8.600,1.737 8.779,1.527 8.779 C 1.317 8.779,1.145 9.108,1.145 9.510 C 1.145 9.913,0.930 10.313,0.668 10.401 C 0.287 10.528,0.191 46.955,0.191 190.840 C 0.191 334.724,0.287 371.152,0.668 371.279 C 0.930 371.366,1.145 371.767,1.145 372.169 C 1.145 372.572,1.317 372.901,1.527 372.901 C 1.737 372.901,1.908 373.080,1.908 373.299 C 1.908 373.517,2.083 373.904,2.297 374.157 C 2.510 374.411,3.073 375.215,3.546 375.945 C 4.020 376.675,5.005 377.659,5.734 378.133 C 6.464 378.607,7.269 379.169,7.522 379.383 C 7.776 379.596,8.162 379.771,8.381 379.771 C 8.600 379.771,8.779 379.943,8.779 380.153 C 8.779 380.363,9.108 380.534,9.510 380.534 C 9.913 380.534,10.313 380.749,10.401 381.011 C 10.635 381.714,389.365 381.714,389.599 381.011 C 389.687 380.749,390.087 380.534,390.490 380.534 C 390.892 380.534,391.221 380.363,391.221 380.153 C 391.221 379.943,391.400 379.771,391.619 379.771 C 391.838 379.771,392.224 379.596,392.478 379.383 C 392.731 379.169,393.536 378.607,394.266 378.133 C 394.995 377.659,395.980 376.675,396.454 375.945 C 396.927 375.215,397.490 374.411,397.703 374.157 C 397.917 373.904,398.092 373.517,398.092 373.299 C 398.092 373.080,398.263 372.901,398.473 372.901 C 398.683 372.901,398.855 372.572,398.855 372.169 C 398.855 371.767,399.070 371.366,399.332 371.279 C 400.034 371.045,400.034 10.635,399.332 10.401 C 399.070 10.313,398.855 9.913,398.855 9.510 C 398.855 9.108,398.683 8.779,398.473 8.779 C 398.263 8.779,398.092 8.600,398.092 8.381 C 398.092 8.162,397.917 7.776,397.703 7.522 C 397.490 7.269,396.927 6.464,396.454 5.734 C 395.980 5.005,394.995 4.020,394.266 3.546 C 393.536 3.073,392.731 2.510,392.478 2.297 C 392.224 2.083,391.838 1.908,391.619 1.908 C 391.400 1.908,391.221 1.737,391.221 1.527 C 391.221 1.317,390.892 1.145,390.490 1.145 C 390.087 1.145,389.687 0.930,389.599 0.668 C 389.448 0.214,15.143 -0.175,11.546 0.275 M180.611 39.463 C 198.786 44.243,204.892 65.582,191.851 78.741 C 188.976 81.642,183.871 84.733,181.956 84.733 C 180.263 84.733,179.805 97.745,181.489 98.013 C 186.461 98.804,192.649 102.175,196.790 106.349 L 198.764 108.339 200.241 107.345 C 201.053 106.798,201.775 106.211,201.845 106.038 C 201.915 105.866,202.215 105.725,202.513 105.725 C 202.810 105.725,203.059 105.596,203.066 105.439 C 203.073 105.281,204.357 104.294,205.921 103.244 C 209.105 101.106,209.163 100.954,208.328 96.912 C 207.523 93.014,209.145 86.490,212.020 82.061 C 221.488 67.474,241.914 67.509,251.400 82.128 C 252.310 83.529,253.053 84.936,253.053 85.254 C 253.053 85.572,253.225 85.939,253.435 86.069 C 253.645 86.198,253.817 86.640,253.817 87.051 C 253.817 87.461,253.979 88.095,254.177 88.459 C 255.275 90.477,255.219 99.874,254.103 100.987 C 253.946 101.144,253.817 101.573,253.817 101.942 C 253.817 102.310,253.180 103.870,252.401 105.409 C 245.595 118.852,227.025 122.089,215.875 111.775 C 214.329 110.345,213.857 110.327,212.389 111.641 C 212.155 111.851,210.216 113.215,208.081 114.672 C 203.817 117.581,203.886 117.444,204.829 121.057 C 205.570 123.899,205.647 130.522,204.971 133.397 C 204.005 137.508,204.004 137.503,205.598 138.780 C 206.403 139.425,207.434 140.151,207.890 140.394 C 208.346 140.636,208.947 141.061,209.226 141.338 C 211.378 143.475,214.620 145.022,215.153 144.166 C 216.054 142.717,222.621 138.550,224.003 138.550 C 224.242 138.550,224.736 138.396,225.101 138.209 C 227.800 136.822,234.743 136.801,238.359 138.169 C 246.192 141.134,253.817 148.608,253.817 153.321 C 253.817 153.599,253.979 154.125,254.177 154.490 C 255.275 156.508,255.219 165.905,254.103 167.017 C 253.946 167.174,253.817 167.604,253.817 167.972 C 253.817 172.217,245.750 180.487,239.504 182.644 C 234.982 184.207,226.717 184.478,225.349 183.110 C 225.192 182.953,224.757 182.824,224.383 182.824 C 222.747 182.824,218.061 179.891,215.238 177.099 C 210.185 172.102,207.181 163.987,208.328 158.431 C 208.906 155.635,208.898 154.260,208.302 153.679 C 207.859 153.248,200.011 147.791,198.956 147.181 C 198.667 147.014,197.930 147.520,197.048 148.493 C 194.398 151.414,188.165 155.212,184.262 156.283 C 180.056 157.438,180.534 156.488,180.540 163.690 C 180.547 170.614,180.577 170.748,182.252 171.150 C 183.657 171.487,187.548 173.333,187.723 173.746 C 187.793 173.911,188.061 174.046,188.318 174.046 C 189.726 174.046,196.947 182.691,196.947 184.377 C 196.947 184.578,197.102 185.041,197.291 185.406 C 199.184 189.048,199.181 196.998,197.285 201.813 C 187.788 225.930,152.224 219.386,152.168 193.511 C 152.158 188.483,153.964 182.416,156.147 180.145 C 156.446 179.834,157.240 178.876,157.913 178.014 C 159.824 175.566,165.511 171.885,168.511 171.154 C 170.186 170.746,170.217 170.613,170.223 163.690 C 170.230 156.489,170.706 157.438,166.505 156.284 C 164.629 155.769,161.587 154.349,158.995 152.778 C 154.456 150.027,149.273 143.817,147.561 139.078 C 147.190 138.053,146.742 136.870,146.564 136.450 C 145.824 134.704,145.664 133.103,145.664 127.481 C 145.664 121.874,145.822 120.281,146.558 118.511 C 146.733 118.092,147.162 116.975,147.512 116.031 C 150.326 108.434,158.369 101.135,166.603 98.705 C 167.863 98.333,169.112 97.961,169.379 97.878 C 169.754 97.762,169.842 96.264,169.761 91.391 L 169.656 85.055 167.655 84.351 C 154.642 79.770,148.340 64.881,154.154 52.455 C 156.866 46.660,165.224 39.717,169.522 39.689 C 170.016 39.686,170.677 39.516,170.992 39.313 C 171.853 38.757,178.308 38.857,180.611 39.463 M171.467 52.196 C 160.431 56.725,163.493 72.986,175.382 72.986 C 189.441 72.986,189.812 52.265,175.763 51.647 C 173.871 51.563,172.618 51.724,171.467 52.196 M226.908 84.837 C 217.697 89.965,219.466 103.007,229.679 105.269 C 238.700 107.266,245.958 96.210,240.652 88.554 C 237.692 84.283,231.104 82.501,226.908 84.837 M172.303 112.542 C 164.652 113.906,158.683 122.577,160.261 130.035 C 162.880 142.411,177.234 147.041,186.065 138.359 C 196.820 127.785,187.272 109.873,172.303 112.542 M229.281 150.035 C 221.140 151.952,218.090 162.167,223.878 168.128 C 228.809 173.205,237.908 172.010,241.124 165.863 C 245.447 157.602,238.212 147.932,229.281 150.035 M170.527 183.844 C 158.002 190.346,167.349 209.329,180.107 203.300 C 186.395 200.329,188.084 191.498,183.364 186.273 C 180.241 182.817,174.573 181.744,170.527 183.844 M210.496 249.190 C 211.626 249.432,211.641 249.469,211.641 251.912 L 211.641 254.389 208.861 254.389 C 205.912 254.389,205.241 254.763,205.437 256.298 C 205.521 256.955,205.866 257.077,207.920 257.175 L 210.305 257.288 210.305 259.733 L 210.305 262.177 207.920 262.291 L 205.534 262.405 205.344 270.420 L 205.153 278.435 202.489 278.550 C 201.024 278.613,199.435 278.567,198.958 278.447 L 198.092 278.230 198.092 270.222 L 198.092 262.214 196.756 262.214 L 195.420 262.214 195.420 259.733 L 195.420 257.252 196.756 257.252 C 197.957 257.252,198.092 257.146,198.097 256.202 C 198.127 250.774,203.553 247.705,210.496 249.190 M220.905 257.156 C 221.009 264.977,221.154 265.670,222.310 263.906 C 222.663 263.367,223.189 262.637,223.479 262.284 C 223.768 261.930,224.809 260.654,225.790 259.447 L 227.574 257.252 231.535 257.252 C 233.714 257.252,235.496 257.365,235.496 257.502 C 235.496 257.761,233.968 259.848,233.116 260.752 C 232.851 261.034,231.779 262.294,230.734 263.552 C 229.689 264.810,228.728 265.926,228.598 266.031 C 228.351 266.230,232.154 272.250,233.781 274.237 C 234.297 274.866,234.722 275.575,234.726 275.812 C 234.730 276.049,234.990 276.456,235.305 276.718 C 237.015 278.136,236.065 278.658,231.977 278.544 L 228.075 278.435 225.895 275.191 C 224.696 273.406,223.703 271.805,223.689 271.633 C 223.625 270.831,222.427 270.100,221.811 270.488 C 221.321 270.795,221.159 271.624,221.072 274.257 C 220.928 278.602,220.854 278.681,217.021 278.545 L 213.931 278.435 213.831 263.821 L 213.731 249.208 217.266 249.318 L 220.802 249.427 220.905 257.156 M150.687 250.458 C 150.997 250.768,151.145 252.548,151.145 255.970 C 151.145 261.865,151.310 262.121,153.359 259.408 C 154.204 258.289,155.125 257.131,155.405 256.836 C 155.686 256.540,156.658 255.321,157.566 254.128 C 160.687 250.022,160.723 250.000,164.525 250.000 C 169.046 250.000,169.777 250.432,168.151 252.141 C 167.538 252.787,166.043 254.530,163.931 257.062 C 162.882 258.321,161.931 259.437,161.819 259.542 C 161.707 259.647,160.960 260.545,160.158 261.537 L 158.701 263.341 160.158 265.354 C 160.960 266.461,161.711 267.452,161.828 267.557 C 162.714 268.357,169.199 277.352,169.232 277.829 C 169.268 278.342,168.641 278.452,165.167 278.543 C 160.457 278.668,160.701 278.801,157.629 274.427 C 157.113 273.693,156.481 272.834,156.226 272.519 C 155.971 272.204,155.014 270.972,154.100 269.780 C 151.856 266.856,151.421 267.455,151.149 273.855 L 150.954 278.435 148.096 278.549 C 146.524 278.612,144.850 278.566,144.375 278.446 L 143.511 278.230 143.511 264.338 C 143.511 253.581,143.619 250.402,143.989 250.253 C 144.995 249.847,150.236 250.007,150.687 250.458 M186.366 257.050 C 191.676 258.661,192.028 259.493,191.897 270.104 L 191.794 278.435 188.561 278.435 C 185.630 278.435,185.289 278.358,184.917 277.611 C 184.513 276.801,184.491 276.799,183.570 277.498 C 178.573 281.289,170.992 278.058,170.992 272.138 C 170.992 267.643,173.731 265.376,179.962 264.709 C 185.018 264.167,185.753 263.734,183.792 262.448 C 182.574 261.650,178.162 261.625,175.954 262.405 C 172.846 263.501,172.519 263.327,172.519 260.573 C 172.519 257.873,172.897 257.264,174.599 257.225 C 175.240 257.210,176.107 257.051,176.527 256.870 C 177.793 256.326,184.376 256.446,186.366 257.050 M253.307 257.096 C 258.295 258.546,258.822 259.832,258.691 270.232 L 258.588 278.435 255.344 278.435 C 252.421 278.435,252.065 278.356,251.749 277.639 C 251.400 276.844,251.396 276.844,249.650 277.830 C 244.167 280.924,237.710 277.829,237.710 272.106 C 237.710 267.428,240.401 265.455,248.060 264.515 C 251.639 264.076,251.633 264.079,251.324 263.274 C 250.761 261.808,245.850 261.310,242.748 262.405 C 239.678 263.488,239.313 263.309,239.313 260.718 C 239.313 257.629,239.511 257.257,241.167 257.225 C 241.932 257.210,242.901 257.051,243.321 256.870 C 244.652 256.298,251.061 256.443,253.307 257.096 M181.145 269.237 C 179.012 269.744,178.028 270.842,178.395 272.305 C 178.648 273.313,180.762 274.189,181.994 273.796 C 184.743 272.921,184.733 272.932,184.733 270.755 C 184.733 268.425,184.672 268.399,181.145 269.237 M248.049 269.218 C 244.058 270.212,243.723 273.606,247.600 273.761 C 250.535 273.878,251.580 273.086,251.449 270.843 C 251.320 268.612,251.032 268.475,248.049 269.218 " stroke="none" fill="#fbfbfb" fill-rule="evenodd"></path><path id="path2" d="M171.125 39.223 C 170.884 39.378,172.896 39.504,175.598 39.504 C 178.299 39.504,180.214 39.387,179.854 39.244 C 178.962 38.891,171.673 38.874,171.125 39.223 M163.263 42.249 C 162.266 42.804,161.450 43.396,161.450 43.564 C 161.450 43.732,162.030 43.489,162.739 43.023 C 163.448 42.557,164.349 41.971,164.743 41.721 C 166.057 40.885,165.098 41.228,163.263 42.249 M187.777 42.627 C 188.297 43.009,189.285 43.811,189.972 44.410 C 190.659 45.009,191.221 45.377,191.221 45.228 C 191.221 44.887,189.553 43.536,188.010 42.627 C 186.872 41.957,186.864 41.957,187.777 42.627 M192.366 46.335 C 192.366 46.474,193.010 47.418,193.798 48.434 C 194.585 49.449,195.447 50.603,195.714 50.999 C 196.123 51.605,196.129 51.568,195.754 50.763 C 195.268 49.721,192.366 45.928,192.366 46.335 M154.464 51.737 C 153.062 54.594,153.192 54.932,154.624 52.156 C 155.258 50.928,155.712 49.860,155.634 49.782 C 155.556 49.704,155.029 50.583,154.464 51.737 M174.339 51.422 C 175.025 51.507,176.055 51.505,176.629 51.418 C 177.203 51.331,176.641 51.261,175.382 51.263 C 174.122 51.265,173.653 51.337,174.339 51.422 M167.339 54.678 L 166.221 55.913 167.366 54.960 C 167.996 54.436,168.583 53.965,168.670 53.912 C 168.758 53.860,168.745 53.733,168.643 53.630 C 168.540 53.527,167.953 53.999,167.339 54.678 M152.890 55.562 C 152.749 56.121,152.708 56.652,152.798 56.742 C 152.888 56.832,153.077 56.448,153.217 55.889 C 153.357 55.329,153.399 54.798,153.309 54.708 C 153.219 54.618,153.030 55.002,152.890 55.562 M184.456 56.596 C 185.133 57.747,185.742 58.640,185.809 58.580 C 186.028 58.385,184.423 55.497,183.816 54.993 C 183.491 54.723,183.779 55.445,184.456 56.596 M165.440 57.287 C 165.104 57.937,164.897 58.536,164.980 58.618 C 165.063 58.701,165.416 58.170,165.765 57.438 C 166.550 55.792,166.278 55.666,165.440 57.287 M197.966 57.443 C 198.255 59.329,198.475 59.651,198.467 58.174 C 198.464 57.562,198.297 56.803,198.097 56.489 C 197.848 56.099,197.806 56.403,197.966 57.443 M152.149 58.874 C 151.842 60.020,151.895 65.288,152.221 66.113 C 152.364 66.473,152.481 64.798,152.481 62.391 C 152.481 57.613,152.482 57.630,152.149 58.874 M186.042 62.405 C 186.038 65.381,186.082 65.616,186.372 64.168 C 186.561 63.221,186.563 61.732,186.376 60.733 C 186.083 59.171,186.045 59.361,186.042 62.405 M164.363 60.401 C 164.065 61.512,164.104 63.750,164.435 64.585 C 164.578 64.945,164.695 63.957,164.695 62.390 C 164.695 59.226,164.688 59.187,164.363 60.401 M198.595 62.214 C 198.595 63.578,198.665 64.136,198.749 63.454 C 198.834 62.772,198.834 61.656,198.749 60.973 C 198.665 60.291,198.595 60.849,198.595 62.214 M198.144 66.286 C 198.115 66.741,197.993 67.428,197.872 67.812 C 197.664 68.474,197.676 68.475,198.088 67.833 C 198.327 67.459,198.450 66.772,198.360 66.306 C 198.196 65.459,198.196 65.459,198.144 66.286 M165.651 67.579 C 165.650 67.695,166.078 68.373,166.603 69.084 C 167.128 69.795,167.551 70.215,167.544 70.017 C 167.529 69.634,165.654 67.218,165.651 67.579 M153.643 71.088 C 153.786 71.560,154.060 72.114,154.252 72.320 C 154.444 72.525,154.408 72.138,154.172 71.461 C 153.688 70.074,153.242 69.759,153.643 71.088 M168.302 70.734 C 168.831 71.416,171.432 72.917,172.027 72.884 C 172.193 72.875,171.641 72.511,170.802 72.075 C 169.962 71.640,168.934 71.003,168.518 70.661 C 167.802 70.072,167.791 70.076,168.302 70.734 M180.153 71.947 C 179.208 72.452,178.571 72.874,178.737 72.884 C 179.142 72.907,182.061 71.407,182.061 71.175 C 182.061 70.923,182.077 70.916,180.153 71.947 M228.699 71.317 C 228.214 71.453,229.555 71.565,231.679 71.565 C 233.803 71.565,235.145 71.453,234.660 71.317 C 234.175 71.180,232.834 71.068,231.679 71.068 C 230.525 71.068,229.184 71.180,228.699 71.317 M237.214 72.137 C 237.634 72.318,238.235 72.465,238.550 72.465 C 238.910 72.465,238.840 72.344,238.359 72.137 C 237.939 71.957,237.338 71.809,237.023 71.809 C 236.662 71.809,236.733 71.931,237.214 72.137 M222.615 72.913 C 221.336 73.426,221.575 73.687,222.901 73.225 C 223.531 73.006,224.046 72.757,224.046 72.673 C 224.046 72.446,223.581 72.524,222.615 72.913 M239.313 72.647 C 239.313 72.745,239.867 73.019,240.545 73.255 C 241.222 73.492,241.609 73.528,241.404 73.336 C 240.969 72.929,239.313 72.383,239.313 72.647 M154.594 73.092 C 154.596 73.302,154.948 73.903,155.378 74.427 C 155.896 75.061,156.026 75.125,155.764 74.618 C 155.120 73.373,154.592 72.683,154.594 73.092 M172.996 73.164 C 173.364 73.260,173.965 73.260,174.332 73.164 C 174.699 73.068,174.399 72.989,173.664 72.989 C 172.929 72.989,172.629 73.068,172.996 73.164 M176.431 73.164 C 176.799 73.260,177.400 73.260,177.767 73.164 C 178.135 73.068,177.834 72.989,177.099 72.989 C 176.365 72.989,176.064 73.068,176.431 73.164 M194.274 75.668 C 193.712 76.436,193.620 76.702,194.032 76.367 C 194.658 75.859,195.604 74.427,195.314 74.427 C 195.241 74.427,194.773 74.986,194.274 75.668 M216.335 76.887 C 215.232 77.858,212.808 80.535,213.033 80.534 C 213.107 80.533,214.185 79.503,215.428 78.244 C 217.751 75.891,218.159 75.281,216.335 76.887 M248.069 78.435 C 251.359 82.012,251.387 82.040,250.465 80.725 C 249.460 79.292,248.215 77.949,246.748 76.718 C 246.123 76.193,246.718 76.966,248.069 78.435 M191.964 78.531 L 190.649 79.962 192.080 78.647 C 192.867 77.923,193.511 77.279,193.511 77.215 C 193.511 76.924,193.188 77.198,191.964 78.531 M157.634 77.600 C 157.634 77.666,158.192 78.224,158.874 78.841 L 160.115 79.962 158.993 78.721 C 157.949 77.565,157.634 77.305,157.634 77.600 M161.450 81.107 C 162.162 81.632,162.839 82.060,162.956 82.059 C 163.316 82.056,160.901 80.181,160.517 80.166 C 160.319 80.159,160.739 80.582,161.450 81.107 M188.359 81.536 C 187.672 82.120,187.532 82.352,188.008 82.116 C 188.708 81.768,190.020 80.512,189.646 80.548 C 189.568 80.556,188.989 81.000,188.359 81.536 M230.439 83.864 C 231.121 83.949,232.238 83.949,232.920 83.864 C 233.602 83.779,233.044 83.710,231.679 83.710 C 230.315 83.710,229.757 83.779,230.439 83.864 M169.656 91.412 C 169.656 95.046,169.785 97.939,169.943 97.842 C 170.100 97.744,170.229 94.851,170.229 91.412 C 170.229 87.973,170.100 85.080,169.943 84.983 C 169.785 84.885,169.656 87.779,169.656 91.412 M180.384 85.337 C 180.049 86.210,180.099 97.632,180.439 97.843 C 180.596 97.940,180.674 95.273,180.611 91.915 C 180.532 87.659,180.633 85.647,180.944 85.271 C 181.214 84.946,181.238 84.733,181.004 84.733 C 180.790 84.733,180.512 85.005,180.384 85.337 M236.832 84.986 C 237.807 85.910,240.203 87.472,239.625 86.807 C 239.272 86.401,238.413 85.744,237.716 85.347 C 237.020 84.949,236.622 84.787,236.832 84.986 M223.666 86.831 C 223.173 87.355,222.843 87.832,222.931 87.892 C 223.019 87.952,223.553 87.523,224.117 86.939 C 224.681 86.356,225.011 85.878,224.851 85.878 C 224.691 85.878,224.158 86.307,223.666 86.831 M208.254 92.414 C 207.964 93.862,208.003 96.061,208.340 97.255 C 208.476 97.740,208.588 96.581,208.588 94.679 C 208.588 90.792,208.584 90.765,208.254 92.414 M220.733 94.656 C 220.733 96.021,220.802 96.579,220.887 95.897 C 220.971 95.215,220.971 94.098,220.887 93.416 C 220.802 92.734,220.733 93.292,220.733 94.656 M241.536 98.873 C 241.184 99.703,240.965 100.382,241.049 100.382 C 241.329 100.382,242.415 98.045,242.294 97.702 C 242.229 97.516,241.888 98.043,241.536 98.873 M208.771 100.286 C 208.764 101.161,208.293 101.655,205.948 103.244 C 204.399 104.294,203.189 105.213,203.258 105.286 C 203.768 105.826,209.160 101.282,209.160 100.312 C 209.160 99.720,209.074 99.237,208.969 99.237 C 208.865 99.237,208.775 99.709,208.771 100.286 M254.243 99.492 C 254.218 99.737,254.087 100.252,253.951 100.637 C 253.760 101.179,253.811 101.238,254.178 100.899 C 254.439 100.659,254.570 100.144,254.469 99.754 C 254.369 99.365,254.267 99.246,254.243 99.492 M161.737 100.600 C 160.257 101.403,160.424 101.680,161.927 100.915 C 163.366 100.184,163.621 99.994,163.136 100.015 C 162.944 100.024,162.314 100.287,161.737 100.600 M239.122 102.352 C 237.989 103.531,237.859 103.770,238.619 103.279 C 239.454 102.740,241.132 100.762,240.753 100.764 C 240.696 100.764,239.962 101.479,239.122 102.352 M157.278 103.439 C 155.929 104.486,154.932 105.344,155.064 105.344 C 155.195 105.344,156.438 104.485,157.824 103.435 C 159.211 102.385,160.208 101.528,160.039 101.530 C 159.871 101.532,158.628 102.391,157.278 103.439 M190.840 101.927 C 192.164 102.826,192.918 103.087,191.985 102.324 C 191.460 101.895,190.859 101.543,190.649 101.541 C 190.439 101.540,190.525 101.713,190.840 101.927 M223.282 102.047 C 223.282 102.152,223.798 102.605,224.427 103.053 C 225.057 103.502,225.573 103.783,225.573 103.678 C 225.573 103.573,225.057 103.120,224.427 102.672 C 223.798 102.223,223.282 101.942,223.282 102.047 M193.142 103.340 C 193.148 103.497,193.621 103.956,194.191 104.359 L 195.229 105.091 194.304 104.072 C 193.331 103.002,193.122 102.870,193.142 103.340 M228.817 105.344 C 229.237 105.524,229.924 105.666,230.344 105.660 C 230.957 105.651,230.920 105.589,230.153 105.344 C 228.848 104.926,227.844 104.926,228.817 105.344 M233.015 105.344 L 232.252 105.672 233.015 105.672 C 233.435 105.672,234.122 105.524,234.542 105.344 L 235.305 105.015 234.542 105.015 C 234.122 105.015,233.435 105.163,233.015 105.344 M196.199 105.846 C 196.166 106.507,198.748 108.878,199.021 108.437 C 199.171 108.195,199.120 108.044,198.907 108.101 C 198.695 108.159,198.002 107.605,197.368 106.870 C 196.733 106.135,196.207 105.675,196.199 105.846 M250.937 107.347 C 250.346 108.239,249.078 109.844,248.119 110.914 C 247.159 111.984,247.405 111.790,248.664 110.483 C 250.667 108.405,252.643 105.725,252.172 105.725 C 252.083 105.725,251.527 106.455,250.937 107.347 M151.941 108.543 L 151.020 109.733 152.112 108.695 C 152.712 108.124,153.127 107.588,153.033 107.505 C 152.939 107.421,152.448 107.888,151.941 108.543 M150.527 110.401 C 149.213 112.630,149.128 112.820,149.797 112.023 C 150.572 111.099,151.240 109.924,150.990 109.924 C 150.890 109.924,150.682 110.138,150.527 110.401 M214.504 110.425 C 214.504 110.490,215.062 111.049,215.744 111.665 L 216.985 112.786 215.864 111.546 C 214.819 110.390,214.504 110.130,214.504 110.425 M210.878 112.438 L 209.733 113.422 211.069 112.560 C 212.782 111.454,212.787 111.450,212.373 111.452 C 212.180 111.453,211.508 111.897,210.878 112.438 M174.718 112.102 C 175.193 112.193,175.880 112.190,176.245 112.094 C 176.610 111.999,176.221 111.924,175.382 111.928 C 174.542 111.933,174.243 112.011,174.718 112.102 M171.851 112.477 C 172.219 112.573,172.820 112.573,173.187 112.477 C 173.554 112.381,173.254 112.302,172.519 112.302 C 171.784 112.302,171.484 112.381,171.851 112.477 M177.576 112.477 C 177.944 112.573,178.545 112.573,178.912 112.477 C 179.280 112.381,178.979 112.302,178.244 112.302 C 177.510 112.302,177.209 112.381,177.576 112.477 M148.264 114.158 C 147.928 114.807,147.721 115.406,147.804 115.489 C 147.887 115.572,148.240 115.040,148.590 114.308 C 149.374 112.662,149.103 112.536,148.264 114.158 M166.794 114.538 C 166.160 115.056,166.096 115.186,166.603 114.924 C 167.848 114.280,168.538 113.752,168.130 113.755 C 167.920 113.756,167.319 114.109,166.794 114.538 M185.878 116.189 C 185.878 116.592,187.028 117.680,187.234 117.473 C 187.331 117.377,187.065 116.986,186.644 116.605 C 186.222 116.224,185.878 116.037,185.878 116.189 M162.741 118.419 C 160.950 121.158,161.165 121.267,163.113 118.607 C 163.689 117.820,164.023 117.177,163.855 117.178 C 163.687 117.180,163.186 117.738,162.741 118.419 M146.438 118.575 C 146.298 118.715,146.194 119.187,146.207 119.625 C 146.230 120.356,146.261 120.346,146.597 119.506 C 146.971 118.571,146.894 118.119,146.438 118.575 M145.658 121.580 C 145.527 121.921,145.440 122.830,145.465 123.600 C 145.506 124.889,145.535 124.849,145.827 123.104 C 146.153 121.155,146.078 120.484,145.658 121.580 M160.115 124.427 C 159.970 125.087,159.931 125.707,160.028 125.804 C 160.125 125.901,160.314 125.432,160.448 124.761 C 160.767 123.171,160.458 122.862,160.115 124.427 M205.447 127.481 C 205.447 128.426,205.522 128.812,205.613 128.340 C 205.704 127.867,205.704 127.094,205.613 126.622 C 205.522 126.150,205.447 126.536,205.447 127.481 M159.989 129.962 C 159.982 130.382,160.125 131.069,160.305 131.489 C 160.723 132.461,160.723 131.458,160.305 130.153 C 160.060 129.386,159.998 129.348,159.989 129.962 M145.426 131.520 C 145.429 132.343,145.600 133.273,145.805 133.588 C 146.060 133.979,146.101 133.555,145.936 132.252 C 145.634 129.871,145.418 129.562,145.426 131.520 M204.632 133.461 C 204.604 133.916,204.481 134.603,204.360 134.988 C 204.153 135.650,204.164 135.651,204.576 135.008 C 204.816 134.635,204.938 133.948,204.848 133.481 C 204.684 132.634,204.684 132.634,204.632 133.461 M146.210 135.378 C 146.195 135.838,146.355 136.321,146.565 136.450 C 147.016 136.729,147.016 136.356,146.565 135.305 C 146.249 134.569,146.236 134.572,146.210 135.378 M162.864 136.795 C 163.241 137.299,163.604 137.659,163.671 137.595 C 163.872 137.404,162.819 135.878,162.486 135.878 C 162.317 135.878,162.487 136.290,162.864 136.795 M203.869 136.670 C 203.819 137.619,204.533 138.499,206.298 139.661 C 206.718 139.938,206.429 139.586,205.657 138.880 C 204.885 138.173,204.179 137.166,204.087 136.641 L 203.921 135.687 203.869 136.670 M228.699 137.347 C 228.214 137.484,229.555 137.595,231.679 137.595 C 233.803 137.595,235.145 137.484,234.660 137.347 C 234.175 137.211,232.834 137.099,231.679 137.099 C 230.525 137.099,229.184 137.211,228.699 137.347 M147.714 139.536 C 147.718 139.980,149.952 143.893,150.202 143.893 C 150.304 143.893,149.841 142.906,149.173 141.698 C 147.761 139.149,147.709 139.072,147.714 139.536 M208.015 140.806 C 208.540 141.235,209.141 141.587,209.351 141.589 C 209.760 141.592,209.069 141.063,207.824 140.420 C 207.317 140.158,207.381 140.287,208.015 140.806 M215.926 143.362 C 215.034 144.228,214.287 144.655,213.913 144.512 C 213.572 144.381,213.418 144.444,213.552 144.661 C 213.986 145.362,214.725 145.044,216.221 143.511 C 218.079 141.609,217.850 141.494,215.926 143.362 M248.069 144.466 C 251.359 148.043,251.387 148.070,250.465 146.756 C 249.460 145.323,248.215 143.980,246.748 142.748 C 246.123 142.223,246.718 142.996,248.069 144.466 M174.528 143.022 C 175.108 143.110,175.967 143.107,176.437 143.017 C 176.906 142.926,176.431 142.854,175.382 142.857 C 174.332 142.860,173.948 142.934,174.528 143.022 M198.250 146.999 C 198.094 147.251,198.138 147.345,198.351 147.213 C 198.558 147.085,199.400 147.434,200.222 147.989 C 201.045 148.543,201.516 148.751,201.270 148.449 C 200.424 147.413,198.550 146.514,198.250 146.999 M153.435 148.248 C 154.386 149.309,157.252 151.715,157.252 151.453 C 157.252 151.377,156.178 150.385,154.866 149.249 C 153.554 148.113,152.910 147.663,153.435 148.248 M195.587 149.714 L 194.466 150.954 195.706 149.833 C 196.388 149.217,196.947 148.658,196.947 148.593 C 196.947 148.298,196.632 148.557,195.587 149.714 M237.399 151.509 C 237.921 151.910,238.423 152.162,238.516 152.069 C 238.732 151.853,237.337 150.789,236.832 150.784 C 236.622 150.782,236.877 151.108,237.399 151.509 M223.659 152.868 C 222.949 153.600,222.476 154.198,222.606 154.198 C 222.939 154.198,225.255 151.845,225.086 151.677 C 225.010 151.601,224.368 152.137,223.659 152.868 M240.114 153.817 C 240.804 154.761,241.421 155.606,241.486 155.693 C 241.550 155.781,241.600 155.695,241.597 155.503 C 241.594 155.310,240.977 154.466,240.225 153.626 L 238.859 152.099 240.114 153.817 M208.263 153.692 C 208.504 153.866,208.789 154.437,208.896 154.962 C 209.064 155.784,209.082 155.761,209.030 154.800 C 208.996 154.171,208.720 153.618,208.397 153.531 C 208.014 153.428,207.970 153.482,208.263 153.692 M170.315 163.423 C 170.268 166.922,170.130 170.100,170.009 170.484 C 169.809 171.123,169.826 171.127,170.209 170.533 C 170.485 170.106,170.590 167.674,170.515 163.471 L 170.400 157.061 170.315 163.423 M208.254 158.445 C 207.959 159.919,208.005 162.093,208.357 163.359 C 208.505 163.887,208.615 162.737,208.605 160.783 C 208.586 156.814,208.583 156.798,208.254 158.445 M220.733 160.687 C 220.733 162.052,220.802 162.610,220.887 161.927 C 220.971 161.245,220.971 160.129,220.887 159.447 C 220.802 158.764,220.733 159.323,220.733 160.687 M242.029 163.473 C 242.005 163.851,241.723 164.667,241.402 165.286 C 241.082 165.905,240.906 166.412,241.011 166.412 C 241.421 166.412,242.403 164.035,242.243 163.429 C 242.094 162.864,242.068 162.869,242.029 163.473 M208.784 165.872 C 208.788 166.274,208.965 166.861,209.178 167.176 C 209.461 167.594,209.496 167.439,209.309 166.603 C 208.995 165.200,208.777 164.895,208.784 165.872 M254.243 165.522 C 254.218 165.767,254.087 166.283,253.951 166.667 C 253.760 167.210,253.811 167.269,254.178 166.930 C 254.439 166.690,254.570 166.174,254.469 165.785 C 254.369 165.395,254.267 165.277,254.243 165.522 M225.954 170.015 C 225.954 170.366,228.191 171.375,228.893 171.341 C 229.350 171.319,229.253 171.209,228.604 171.012 C 228.067 170.849,227.251 170.514,226.791 170.268 C 226.331 170.022,225.954 169.908,225.954 170.015 M236.924 170.073 C 236.800 170.198,236.041 170.534,235.238 170.820 C 234.435 171.106,234.088 171.348,234.466 171.357 C 235.162 171.374,237.405 170.360,237.405 170.028 C 237.405 169.781,237.197 169.801,236.924 170.073 M166.508 171.768 C 165.230 172.281,165.468 172.542,166.794 172.080 C 167.424 171.861,167.939 171.612,167.939 171.528 C 167.939 171.301,167.474 171.379,166.508 171.768 M182.824 171.502 C 182.824 171.600,183.379 171.874,184.056 172.110 C 184.734 172.347,185.120 172.383,184.915 172.191 C 184.480 171.784,182.824 171.238,182.824 171.502 M230.630 171.647 C 231.207 171.735,232.152 171.735,232.729 171.647 C 233.306 171.560,232.834 171.488,231.679 171.488 C 230.525 171.488,230.052 171.560,230.630 171.647 M250.785 173.569 C 250.087 174.566,249.839 175.093,250.235 174.739 C 250.926 174.122,252.480 171.756,252.194 171.756 C 252.118 171.756,251.484 172.572,250.785 173.569 M212.883 174.618 C 213.320 175.248,214.416 176.450,215.320 177.290 C 216.713 178.585,216.650 178.469,214.903 176.527 C 212.143 173.457,211.959 173.283,212.883 174.618 M188.168 174.193 C 188.168 174.274,188.640 174.644,189.218 175.015 L 190.267 175.691 189.540 174.868 C 188.897 174.140,188.168 173.782,188.168 174.193 M159.703 176.241 C 158.848 177.028,157.903 178.025,157.604 178.456 C 157.306 178.888,157.517 178.742,158.074 178.133 C 158.631 177.524,159.661 176.534,160.364 175.933 C 161.066 175.332,161.555 174.834,161.450 174.826 C 161.345 174.818,160.559 175.455,159.703 176.241 M247.883 177.195 L 246.374 178.817 247.996 177.308 C 249.505 175.905,249.794 175.573,249.505 175.573 C 249.443 175.573,248.713 176.302,247.883 177.195 M193.140 178.479 C 193.146 178.665,193.618 179.339,194.190 179.977 C 195.341 181.262,195.239 180.934,193.961 179.242 C 193.504 178.637,193.134 178.293,193.140 178.479 M244.847 179.634 L 243.702 180.615 244.943 179.920 C 245.625 179.538,246.183 179.090,246.183 178.925 C 246.183 178.507,246.132 178.534,244.847 179.634 M217.557 179.408 C 218.881 180.307,219.635 180.568,218.702 179.805 C 218.177 179.376,217.576 179.023,217.366 179.022 C 217.156 179.021,217.242 179.194,217.557 179.408 M155.585 181.011 L 154.898 182.252 155.685 181.298 C 156.383 180.451,156.692 179.771,156.380 179.771 C 156.320 179.771,155.962 180.329,155.585 181.011 M174.339 182.719 C 175.025 182.804,176.055 182.803,176.629 182.715 C 177.203 182.628,176.641 182.559,175.382 182.561 C 174.122 182.563,173.653 182.634,174.339 182.719 M178.626 183.007 C 178.626 183.154,180.909 184.351,181.188 184.351 C 181.273 184.351,181.247 184.196,181.130 184.007 C 180.914 183.658,178.626 182.744,178.626 183.007 M225.382 183.206 C 225.511 183.416,225.994 183.576,226.454 183.561 C 227.260 183.535,227.263 183.522,226.527 183.206 C 225.476 182.755,225.103 182.755,225.382 183.206 M230.057 184.007 C 230.949 184.174,232.409 184.174,233.302 184.007 C 234.660 183.752,234.396 183.702,231.679 183.702 C 228.963 183.702,228.699 183.752,230.057 184.007 M167.537 185.782 L 166.221 187.214 167.653 185.898 C 168.440 185.175,169.084 184.531,169.084 184.467 C 169.084 184.176,168.761 184.450,167.537 185.782 M183.189 186.069 C 184.110 187.118,184.943 188.063,185.040 188.168 C 185.138 188.273,185.037 188.015,184.816 187.595 C 184.595 187.176,183.762 186.231,182.965 185.496 C 181.587 184.226,181.598 184.255,183.189 186.069 M197.956 188.550 C 198.258 190.196,198.475 190.506,198.467 189.281 C 198.464 188.774,198.293 188.101,198.086 187.786 C 197.822 187.383,197.784 187.610,197.956 188.550 M185.326 189.122 C 185.472 189.542,185.724 190.401,185.886 191.031 C 186.156 192.078,186.184 192.094,186.207 191.221 C 186.221 190.697,185.969 189.838,185.647 189.313 C 185.259 188.679,185.151 188.615,185.326 189.122 M152.140 189.917 C 151.813 190.768,151.862 196.665,152.201 197.196 C 152.355 197.439,152.481 195.764,152.481 193.475 C 152.481 191.186,152.456 189.313,152.426 189.313 C 152.396 189.313,152.267 189.585,152.140 189.917 M198.595 193.511 C 198.595 194.876,198.665 195.434,198.749 194.752 C 198.834 194.070,198.834 192.953,198.749 192.271 C 198.665 191.589,198.595 192.147,198.595 193.511 M164.149 193.543 C 164.164 194.470,164.319 195.573,164.494 195.992 C 164.687 196.453,164.731 195.848,164.606 194.466 C 164.356 191.708,164.112 191.215,164.149 193.543 M186.082 194.493 C 185.936 195.663,185.570 197.208,185.269 197.928 C 184.969 198.648,184.808 199.237,184.913 199.237 C 185.018 199.237,185.350 198.648,185.651 197.928 C 186.209 196.591,186.884 192.366,186.538 192.366 C 186.433 192.366,186.228 193.323,186.082 194.493 M198.144 197.583 C 198.115 198.038,197.993 198.725,197.872 199.110 C 197.664 199.772,197.676 199.773,198.088 199.130 C 198.327 198.757,198.450 198.070,198.360 197.604 C 198.196 196.757,198.196 196.757,198.144 197.583 M183.015 201.060 C 182.176 201.842,181.059 202.790,180.534 203.166 C 179.584 203.847,179.585 203.847,180.725 203.233 C 182.158 202.460,182.773 201.967,183.941 200.657 C 185.241 199.197,184.816 199.382,183.015 201.060 M168.009 201.742 C 168.362 202.149,169.221 202.806,169.917 203.203 C 171.411 204.055,171.018 203.633,168.893 202.103 C 168.005 201.464,167.635 201.313,168.009 201.742 M155.406 205.725 C 155.727 206.250,156.230 207.066,156.522 207.538 C 156.815 208.010,157.193 208.397,157.363 208.397 C 157.533 208.397,157.201 207.753,156.624 206.966 C 155.287 205.139,154.650 204.491,155.406 205.725 M191.460 210.021 C 190.016 211.503,189.329 212.360,189.933 211.925 C 190.995 211.161,192.829 209.292,193.864 207.920 C 194.770 206.720,194.128 207.281,191.460 210.021 M158.515 209.807 C 158.836 210.326,161.832 212.743,161.832 212.483 C 161.832 212.385,161.024 211.644,160.037 210.835 C 159.050 210.026,158.365 209.563,158.515 209.807 M170.229 216.412 C 170.754 216.580,171.527 216.718,171.947 216.718 C 172.551 216.718,172.511 216.654,171.756 216.412 C 171.231 216.244,170.458 216.107,170.038 216.107 C 169.434 216.107,169.473 216.170,170.229 216.412 M205.621 249.130 C 206.299 249.215,207.501 249.216,208.293 249.134 C 209.085 249.051,208.531 248.982,207.061 248.980 C 205.592 248.979,204.944 249.046,205.621 249.130 M202.290 249.636 C 201.872 249.919,202.026 249.954,202.863 249.767 C 204.266 249.453,204.571 249.235,203.594 249.242 C 203.192 249.246,202.605 249.423,202.290 249.636 M210.782 249.477 C 211.321 249.636,211.450 250.112,211.450 251.940 L 211.450 254.205 209.401 253.964 C 208.273 253.832,207.084 253.873,206.758 254.056 C 206.377 254.270,207.145 254.389,208.903 254.389 L 211.641 254.389 211.641 251.914 C 211.641 249.719,211.555 249.429,210.878 249.359 C 210.285 249.298,210.263 249.324,210.782 249.477 M220.530 257.479 C 220.629 264.869,220.838 266.443,221.565 265.267 C 221.695 265.057,221.619 264.885,221.397 264.885 C 221.126 264.885,220.992 262.377,220.992 257.274 C 220.992 253.088,220.864 249.584,220.706 249.486 C 220.549 249.388,220.469 252.985,220.530 257.479 M143.989 250.253 C 143.726 250.359,143.511 250.609,143.511 250.809 C 143.511 251.023,143.828 251.003,144.281 250.760 C 144.704 250.534,146.293 250.399,147.811 250.460 L 150.573 250.573 150.678 256.393 C 150.787 262.420,151.061 263.280,152.260 261.355 C 152.732 260.597,152.727 260.552,152.221 260.970 C 151.272 261.754,151.145 261.159,151.145 255.929 C 151.145 252.539,150.997 250.768,150.687 250.458 C 150.236 250.007,144.995 249.847,143.989 250.253 M160.936 250.286 C 160.838 250.444,162.482 250.518,164.591 250.451 C 168.306 250.333,168.417 250.353,168.217 251.119 C 168.103 251.553,168.146 251.908,168.312 251.908 C 168.896 251.908,169.006 250.433,168.438 250.215 C 167.601 249.894,161.142 249.955,160.936 250.286 M200.045 251.217 C 199.391 251.887,198.855 252.603,198.855 252.808 C 198.855 253.013,198.898 253.107,198.950 253.017 C 199.003 252.928,199.638 252.212,200.361 251.427 C 201.963 249.689,201.706 249.519,200.045 251.217 M166.795 253.243 C 166.303 253.767,165.973 254.259,166.061 254.338 C 166.149 254.416,166.621 253.987,167.109 253.385 C 168.202 252.037,168.010 251.950,166.795 253.243 M157.580 254.103 C 156.482 255.429,156.017 256.107,156.206 256.107 C 156.311 256.107,156.856 255.506,157.417 254.771 C 158.457 253.408,158.583 252.893,157.580 254.103 M198.330 254.404 C 198.199 254.745,198.111 255.483,198.135 256.043 C 198.168 256.805,198.254 256.678,198.477 255.534 C 198.793 253.912,198.723 253.378,198.330 254.404 M154.075 258.440 C 153.273 259.466,152.694 260.305,152.789 260.305 C 153.058 260.305,155.828 256.844,155.672 256.702 C 155.597 256.632,154.878 257.415,154.075 258.440 M176.527 256.861 C 176.066 257.053,176.671 257.097,178.053 256.972 C 179.313 256.858,180.415 256.703,180.503 256.627 C 180.828 256.344,177.261 256.554,176.527 256.861 M181.711 256.626 C 181.799 256.702,182.901 256.865,184.160 256.989 C 185.615 257.131,186.172 257.091,185.687 256.878 C 184.965 256.560,181.373 256.333,181.711 256.626 M243.321 256.861 C 242.860 257.053,243.465 257.097,244.847 256.972 C 246.107 256.858,247.209 256.703,247.296 256.627 C 247.622 256.344,244.055 256.554,243.321 256.861 M248.505 256.626 C 248.593 256.702,249.695 256.865,250.954 256.989 C 252.409 257.131,252.966 257.091,252.481 256.878 C 251.759 256.560,248.167 256.333,248.505 256.626 M172.977 257.710 C 172.482 258.205,172.327 262.977,172.805 262.978 C 172.963 262.978,173.034 261.862,172.964 260.497 C 172.845 258.195,172.900 257.989,173.727 257.658 C 174.252 257.447,174.375 257.290,174.027 257.276 C 173.701 257.263,173.229 257.458,172.977 257.710 M235.115 257.501 C 235.115 257.708,234.500 258.596,233.749 259.473 C 232.998 260.351,232.525 261.063,232.699 261.057 C 233.187 261.039,235.634 257.644,235.358 257.368 C 235.224 257.234,235.115 257.294,235.115 257.501 M239.489 258.131 C 239.367 258.615,239.332 259.946,239.411 261.089 C 239.552 263.146,239.554 263.141,239.624 260.611 C 239.679 258.627,239.845 257.966,240.363 257.664 C 240.991 257.298,240.992 257.274,240.370 257.264 C 239.993 257.257,239.614 257.629,239.489 258.131 M255.725 258.135 C 255.725 258.200,256.283 258.759,256.966 259.375 L 258.206 260.496 257.085 259.256 C 256.040 258.099,255.725 257.840,255.725 258.135 M258.248 261.641 C 258.562 263.045,258.781 263.349,258.773 262.373 C 258.770 261.970,258.593 261.384,258.380 261.069 C 258.097 260.651,258.061 260.805,258.248 261.641 M178.912 261.726 C 179.594 261.811,180.711 261.811,181.393 261.726 C 182.075 261.642,181.517 261.573,180.153 261.573 C 178.788 261.573,178.230 261.642,178.912 261.726 M195.420 261.909 C 195.420 262.076,196.021 262.214,196.756 262.214 C 197.490 262.214,198.092 262.147,198.092 262.065 C 198.092 261.983,197.490 261.845,196.756 261.760 C 196.021 261.674,195.420 261.741,195.420 261.909 M208.015 261.734 C 206.861 261.812,205.795 261.995,205.647 262.140 C 205.499 262.286,206.487 262.347,207.842 262.277 C 209.197 262.206,210.305 261.992,210.305 261.799 C 210.305 261.607,210.262 261.482,210.210 261.521 C 210.157 261.560,209.170 261.656,208.015 261.734 M230.534 263.359 C 229.656 264.408,229.022 265.267,229.127 265.267 C 229.232 265.267,230.037 264.408,230.916 263.359 C 231.795 262.309,232.428 261.450,232.323 261.450 C 232.218 261.450,231.413 262.309,230.534 263.359 M245.706 261.726 C 246.388 261.811,247.505 261.811,248.187 261.726 C 248.869 261.642,248.311 261.573,246.947 261.573 C 245.582 261.573,245.024 261.642,245.706 261.726 M158.977 262.587 C 158.343 263.287,159.585 266.031,160.535 266.031 C 160.640 266.031,160.265 265.426,159.701 264.686 C 158.710 263.387,158.698 263.317,159.359 262.587 C 159.734 262.172,159.956 261.832,159.851 261.832 C 159.746 261.832,159.353 262.172,158.977 262.587 M250.191 262.288 C 251.651 263.116,251.903 263.985,250.758 264.242 C 250.081 264.394,250.089 264.408,250.823 264.364 C 252.357 264.270,251.459 261.806,249.905 261.844 C 249.642 261.850,249.771 262.050,250.191 262.288 M198.175 270.284 C 198.102 277.166,198.168 278.192,198.695 278.394 C 199.561 278.726,204.883 278.681,205.094 278.340 C 205.192 278.182,203.785 278.053,201.968 278.053 L 198.664 278.053 198.461 270.229 L 198.259 262.405 198.175 270.284 M222.584 263.396 C 221.878 264.527,222.192 264.612,223.014 263.512 C 223.391 263.008,223.561 262.595,223.392 262.595 C 223.223 262.595,222.859 262.956,222.584 263.396 M184.733 263.714 C 184.733 263.909,184.346 264.143,183.874 264.234 C 183.138 264.376,183.165 264.407,184.065 264.452 C 184.767 264.487,185.115 264.314,185.115 263.931 C 185.115 263.616,185.029 263.359,184.924 263.359 C 184.819 263.359,184.733 263.519,184.733 263.714 M180.630 264.767 C 180.997 264.863,181.598 264.863,181.966 264.767 C 182.333 264.671,182.032 264.592,181.298 264.592 C 180.563 264.592,180.262 264.671,180.630 264.767 M247.424 264.767 C 247.791 264.863,248.392 264.863,248.760 264.767 C 249.127 264.671,248.826 264.592,248.092 264.592 C 247.357 264.592,247.056 264.671,247.424 264.767 M176.718 265.272 C 176.315 265.537,176.541 265.575,177.481 265.403 C 179.127 265.101,179.438 264.884,178.212 264.891 C 177.705 264.895,177.032 265.066,176.718 265.272 M243.511 265.272 C 243.109 265.537,243.335 265.575,244.275 265.403 C 245.921 265.101,246.231 264.884,245.006 264.891 C 244.499 264.895,243.826 265.066,243.511 265.272 M228.826 267.392 C 229.181 268.035,229.810 268.980,230.225 269.491 L 230.980 270.420 230.335 269.250 C 229.980 268.606,229.350 267.661,228.935 267.150 L 228.181 266.221 228.826 267.392 M238.545 268.416 C 238.129 269.098,237.795 269.914,237.803 270.229 C 237.810 270.544,238.072 270.212,238.384 269.492 C 238.697 268.772,239.141 267.956,239.370 267.679 C 239.600 267.402,239.679 267.176,239.545 267.176 C 239.411 267.176,238.961 267.734,238.545 268.416 M151.478 268.568 C 151.129 268.987,150.890 270.678,150.763 273.625 L 150.573 278.053 147.578 278.166 C 145.699 278.236,144.384 278.112,144.048 277.833 C 143.671 277.520,143.511 277.513,143.511 277.809 C 143.511 278.446,144.933 278.675,148.096 278.549 L 150.954 278.435 151.145 273.817 C 151.274 270.708,151.507 268.993,151.860 268.569 C 152.148 268.222,152.298 267.939,152.193 267.939 C 152.088 267.939,151.766 268.222,151.478 268.568 M180.534 269.084 C 179.805 269.555,180.590 269.555,182.061 269.084 L 183.015 268.778 182.061 268.746 C 181.536 268.728,180.849 268.880,180.534 269.084 M184.803 270.648 C 184.744 272.448,184.598 272.849,183.874 273.198 C 183.402 273.426,183.197 273.624,183.419 273.638 C 184.614 273.715,185.160 272.677,185.017 270.599 L 184.874 268.511 184.803 270.648 M247.328 269.084 C 246.599 269.555,247.384 269.555,248.855 269.084 L 249.809 268.778 248.855 268.746 C 248.330 268.728,247.643 268.880,247.328 269.084 M251.441 270.324 C 251.649 272.998,251.817 273.226,251.864 270.897 C 251.888 269.690,251.775 268.702,251.612 268.702 C 251.449 268.702,251.372 269.432,251.441 270.324 M164.475 271.469 C 165.381 272.677,166.198 273.664,166.291 273.664 C 166.552 273.664,164.041 270.253,163.398 269.735 C 163.085 269.482,163.570 270.262,164.475 271.469 M178.457 270.314 C 177.322 271.934,178.365 274.087,180.248 274.011 C 180.912 273.985,180.827 273.896,179.871 273.620 C 178.339 273.177,177.873 271.806,178.784 270.417 C 179.556 269.238,179.273 269.149,178.457 270.314 M221.457 270.238 C 221.009 270.956,221.030 270.976,221.759 270.524 C 222.410 270.120,222.604 270.135,222.907 270.611 C 223.107 270.926,223.273 271.003,223.277 270.782 C 223.283 270.361,222.518 269.466,222.153 269.466 C 222.035 269.466,221.722 269.813,221.457 270.238 M155.205 271.183 C 155.789 272.023,156.317 272.781,156.378 272.869 C 156.439 272.956,156.489 272.864,156.489 272.664 C 156.489 272.463,155.961 271.705,155.316 270.978 L 154.143 269.656 155.205 271.183 M244.708 271.804 C 244.680 272.357,244.956 273.042,245.324 273.331 C 245.906 273.787,245.935 273.781,245.552 273.282 C 245.310 272.968,245.032 272.281,244.936 271.756 L 244.760 270.802 244.708 271.804 M220.601 274.618 L 220.420 278.053 217.116 278.053 C 215.299 278.053,213.892 278.182,213.989 278.340 C 214.328 278.884,220.102 278.666,220.580 278.090 C 220.864 277.749,220.981 276.403,220.903 274.369 L 220.782 271.183 220.601 274.618 M233.856 274.963 C 234.233 275.467,234.597 275.827,234.664 275.763 C 234.864 275.572,233.811 274.046,233.478 274.046 C 233.309 274.046,233.479 274.458,233.856 274.963 M238.901 276.206 C 239.288 276.999,241.524 278.627,242.221 278.625 C 242.406 278.624,241.956 278.264,241.221 277.825 C 240.487 277.387,239.573 276.657,239.192 276.205 L 238.498 275.382 238.901 276.206 M226.938 276.718 C 227.780 278.456,228.241 278.626,232.120 278.626 C 235.794 278.626,237.169 277.943,235.532 276.930 C 235.341 276.813,235.276 277.060,235.385 277.480 C 235.750 278.875,228.600 278.617,227.484 277.195 C 227.032 276.617,226.786 276.403,226.938 276.718 M173.664 277.672 C 174.375 278.197,175.120 278.626,175.318 278.626 C 175.517 278.626,175.046 278.197,174.273 277.672 C 173.500 277.147,172.755 276.718,172.619 276.718 C 172.482 276.718,172.953 277.147,173.664 277.672 M182.443 277.719 C 181.498 278.238,181.155 278.544,181.679 278.399 C 182.627 278.136,184.351 277.146,184.351 276.865 C 184.351 276.666,184.391 276.649,182.443 277.719 M184.757 277.118 C 184.704 278.417,191.002 279.519,191.736 278.340 C 191.834 278.182,190.469 278.109,188.703 278.177 C 185.645 278.295,185.475 278.258,185.137 277.414 C 184.926 276.888,184.771 276.768,184.757 277.118 M251.551 277.118 C 251.498 278.417,257.796 279.519,258.530 278.340 C 258.628 278.182,257.263 278.109,255.497 278.177 C 252.439 278.295,252.269 278.258,251.931 277.414 C 251.720 276.888,251.565 276.768,251.551 277.118 M168.864 277.854 C 168.665 278.052,166.787 278.271,164.690 278.340 L 160.878 278.466 164.958 278.546 C 167.521 278.596,169.132 278.475,169.291 278.219 C 169.629 277.671,169.315 277.403,168.864 277.854 M177.195 278.899 C 177.772 278.987,178.717 278.987,179.294 278.899 C 179.871 278.812,179.399 278.740,178.244 278.740 C 177.090 278.740,176.617 278.812,177.195 278.899 M243.989 278.899 C 244.566 278.987,245.510 278.987,246.088 278.899 C 246.665 278.812,246.193 278.740,245.038 278.740 C 243.884 278.740,243.411 278.812,243.989 278.899 " stroke="none" fill="#9f9f9f" fill-rule="evenodd"></path><path id="path3" d="M230.821 83.475 C 231.293 83.566,232.066 83.566,232.538 83.475 C 233.010 83.384,232.624 83.310,231.679 83.310 C 230.735 83.310,230.348 83.384,230.821 83.475 M254.684 94.656 C 254.684 95.601,254.759 95.988,254.850 95.515 C 254.940 95.043,254.940 94.270,254.850 93.798 C 254.759 93.325,254.684 93.712,254.684 94.656 M153.984 106.584 L 152.863 107.824 154.103 106.703 C 155.259 105.658,155.519 105.344,155.224 105.344 C 155.158 105.344,154.600 105.902,153.984 106.584 M230.821 117.827 C 231.293 117.918,232.066 117.918,232.538 117.827 C 233.010 117.736,232.624 117.661,231.679 117.661 C 230.735 117.661,230.348 117.736,230.821 117.827 M190.928 127.481 C 190.928 128.216,191.007 128.516,191.103 128.149 C 191.199 127.781,191.199 127.180,191.103 126.813 C 191.007 126.446,190.928 126.746,190.928 127.481 M154.008 148.473 C 154.828 149.313,155.584 150.000,155.689 150.000 C 155.794 150.000,155.209 149.313,154.389 148.473 C 153.569 147.634,152.813 146.947,152.708 146.947 C 152.603 146.947,153.188 147.634,154.008 148.473 M230.821 149.506 C 231.293 149.597,232.066 149.597,232.538 149.506 C 233.010 149.415,232.624 149.341,231.679 149.341 C 230.735 149.341,230.348 149.415,230.821 149.506 M254.684 160.687 C 254.684 161.632,254.759 162.018,254.850 161.546 C 254.940 161.073,254.940 160.301,254.850 159.828 C 254.759 159.356,254.684 159.742,254.684 160.687 M191.412 177.099 C 192.232 177.939,192.989 178.626,193.094 178.626 C 193.199 178.626,192.614 177.939,191.794 177.099 C 190.974 176.260,190.217 175.573,190.112 175.573 C 190.007 175.573,190.592 176.260,191.412 177.099 M213.914 249.715 C 213.455 250.914,213.935 277.991,214.418 278.089 C 214.686 278.143,214.729 278.100,214.513 277.993 C 214.257 277.866,214.122 272.956,214.122 263.724 L 214.122 249.649 217.271 249.521 L 220.420 249.392 217.259 249.314 C 215.017 249.259,214.045 249.376,213.914 249.715 M146.098 250.662 C 146.996 250.742,148.370 250.741,149.151 250.659 C 149.933 250.577,149.198 250.511,147.519 250.513 C 145.840 250.514,145.200 250.581,146.098 250.662 M162.894 250.664 C 164.004 250.741,165.721 250.740,166.711 250.662 C 167.701 250.583,166.794 250.520,164.695 250.521 C 162.595 250.522,161.785 250.586,162.894 250.664 M143.683 264.313 C 143.683 271.660,143.735 274.612,143.797 270.872 C 143.860 267.133,143.860 261.121,143.797 257.514 C 143.734 253.906,143.683 256.966,143.683 264.313 M209.733 259.542 C 209.733 260.761,209.862 261.680,210.019 261.582 C 210.177 261.485,210.305 260.567,210.305 259.542 C 210.305 258.517,210.177 257.599,210.019 257.502 C 209.862 257.404,209.733 258.323,209.733 259.542 M205.123 270.229 C 205.123 274.532,205.178 276.293,205.247 274.141 C 205.315 271.990,205.315 268.469,205.247 266.317 C 205.178 264.165,205.123 265.926,205.123 270.229 M258.483 270.293 C 258.419 275.874,258.275 277.848,257.920 277.991 C 257.546 278.142,257.549 278.191,257.932 278.214 C 258.738 278.264,258.801 277.575,258.683 270.026 L 258.570 262.786 258.483 270.293 M185.218 270.611 C 185.218 271.555,185.293 271.942,185.384 271.469 C 185.475 270.997,185.475 270.224,185.384 269.752 C 185.293 269.280,185.218 269.666,185.218 270.611 " stroke="none" fill="#7c7c7c" fill-rule="evenodd"></path><path id="path4" d="M170.802 39.695 C 169.773 39.956,169.754 39.987,170.611 39.993 C 171.135 39.997,171.994 39.863,172.519 39.695 C 173.802 39.284,172.416 39.284,170.802 39.695 M178.244 39.695 C 178.769 39.863,179.628 39.997,180.153 39.993 C 181.010 39.987,180.990 39.956,179.962 39.695 C 178.347 39.284,176.961 39.284,178.244 39.695 M186.260 42.156 C 186.260 42.261,186.775 42.613,187.405 42.939 C 188.034 43.265,188.550 43.445,188.550 43.340 C 188.550 43.235,188.034 42.883,187.405 42.557 C 186.775 42.232,186.260 42.051,186.260 42.156 M188.963 43.989 C 189.051 44.041,189.637 44.513,190.267 45.038 L 191.412 45.992 190.487 44.943 C 189.978 44.365,189.391 43.893,189.183 43.893 C 188.975 43.893,188.876 43.936,188.963 43.989 M158.955 46.279 L 157.061 48.282 159.065 46.388 C 160.927 44.628,161.244 44.275,160.959 44.275 C 160.899 44.275,159.997 45.177,158.955 46.279 M183.206 54.389 C 183.918 55.124,184.587 55.725,184.692 55.725 C 184.797 55.725,184.300 55.124,183.588 54.389 C 182.876 53.655,182.207 53.053,182.102 53.053 C 181.997 53.053,182.494 53.655,183.206 54.389 M197.334 56.330 C 197.337 56.732,197.514 57.319,197.727 57.634 C 198.010 58.052,198.046 57.897,197.859 57.061 C 197.545 55.658,197.326 55.353,197.334 56.330 M186.534 61.450 C 186.652 62.605,186.810 63.621,186.886 63.709 C 187.169 64.037,186.956 60.846,186.645 60.115 C 186.443 59.639,186.401 60.144,186.534 61.450 M152.415 62.405 C 152.417 63.874,152.486 64.428,152.569 63.637 C 152.651 62.845,152.650 61.642,152.566 60.965 C 152.481 60.287,152.414 60.935,152.415 62.405 M198.217 62.405 C 198.219 63.874,198.288 64.428,198.370 63.637 C 198.453 62.845,198.451 61.642,198.367 60.965 C 198.283 60.287,198.215 60.935,198.217 62.405 M181.298 71.790 C 180.664 72.308,180.600 72.438,181.107 72.176 C 182.352 71.532,183.042 71.004,182.634 71.007 C 182.424 71.008,181.823 71.361,181.298 71.790 M226.145 72.147 C 225.635 72.373,225.952 72.410,227.099 72.258 C 228.044 72.133,228.888 71.969,228.976 71.893 C 229.307 71.606,226.874 71.825,226.145 72.147 M215.702 78.120 L 213.168 80.667 215.840 78.232 C 217.309 76.893,218.583 75.747,218.670 75.685 C 218.758 75.623,218.696 75.573,218.533 75.573 C 218.370 75.573,217.096 76.719,215.702 78.120 M247.710 78.428 C 248.655 79.474,249.470 80.404,249.523 80.495 C 249.575 80.587,249.700 80.580,249.800 80.480 C 249.900 80.379,249.085 79.449,247.988 78.412 L 245.993 76.527 247.710 78.428 M191.394 78.721 L 189.885 80.344 191.508 78.835 C 193.016 77.432,193.305 77.099,193.016 77.099 C 192.954 77.099,192.224 77.829,191.394 78.721 M188.246 81.080 C 186.473 82.333,186.223 82.692,187.720 81.834 C 188.419 81.434,189.170 80.892,189.389 80.630 C 189.953 79.955,189.688 80.060,188.246 81.080 M228.435 83.588 C 227.954 83.795,227.883 83.916,228.244 83.916 C 228.559 83.916,229.160 83.768,229.580 83.588 C 230.061 83.381,230.132 83.260,229.771 83.260 C 229.456 83.260,228.855 83.407,228.435 83.588 M180.190 84.879 C 179.888 85.242,179.788 87.407,179.867 91.844 L 179.982 98.282 180.067 91.686 C 180.151 85.240,180.172 85.082,181.011 84.745 C 181.593 84.511,181.669 84.392,181.249 84.375 C 180.907 84.362,180.431 84.589,180.190 84.879 M170.387 91.412 C 170.387 95.191,170.444 96.685,170.514 94.733 C 170.583 92.780,170.583 89.689,170.513 87.862 C 170.443 86.036,170.386 87.634,170.387 91.412 M223.331 86.824 C 222.465 87.763,221.756 88.651,221.756 88.796 C 221.756 88.940,221.812 88.987,221.882 88.899 C 221.951 88.812,222.745 87.925,223.648 86.927 C 224.550 85.930,225.202 85.115,225.097 85.115 C 224.992 85.115,224.197 85.884,223.331 86.824 M208.883 91.985 C 208.883 92.929,208.957 93.316,209.048 92.844 C 209.139 92.371,209.139 91.598,209.048 91.126 C 208.957 90.654,208.883 91.040,208.883 91.985 M254.308 92.176 C 254.311 93.225,254.385 93.609,254.472 93.029 C 254.560 92.449,254.558 91.590,254.467 91.121 C 254.377 90.651,254.305 91.126,254.308 92.176 M220.420 91.985 C 220.275 92.645,220.236 93.264,220.333 93.361 C 220.430 93.458,220.620 92.989,220.754 92.319 C 221.072 90.728,220.764 90.419,220.420 91.985 M242.703 92.832 C 242.878 93.891,242.932 93.945,243.052 93.181 C 243.130 92.685,243.037 92.121,242.845 91.929 C 242.633 91.717,242.577 92.073,242.703 92.832 M242.792 95.866 C 242.768 96.216,242.649 96.817,242.528 97.202 C 242.320 97.864,242.332 97.865,242.745 97.221 C 242.985 96.847,243.104 96.246,243.009 95.885 C 242.854 95.294,242.832 95.292,242.792 95.866 M254.302 96.947 C 254.302 97.891,254.377 98.278,254.468 97.805 C 254.559 97.333,254.559 96.560,254.468 96.088 C 254.377 95.615,254.302 96.002,254.302 96.947 M208.883 97.328 C 208.883 98.273,208.957 98.659,209.048 98.187 C 209.139 97.715,209.139 96.942,209.048 96.469 C 208.957 95.997,208.883 96.384,208.883 97.328 M253.673 100.206 C 253.542 100.547,253.450 101.112,253.468 101.463 C 253.486 101.813,253.652 101.593,253.837 100.973 C 254.197 99.769,254.070 99.173,253.673 100.206 M189.885 101.724 C 190.305 102.066,190.992 102.515,191.412 102.721 L 192.176 103.096 191.412 102.474 C 190.992 102.132,190.305 101.684,189.885 101.478 L 189.122 101.103 189.885 101.724 M252.352 104.024 C 251.713 105.428,251.835 105.727,252.526 104.451 C 252.849 103.855,253.042 103.296,252.954 103.209 C 252.867 103.122,252.596 103.488,252.352 104.024 M155.892 105.057 L 154.771 106.298 156.011 105.177 C 156.694 104.560,157.252 104.002,157.252 103.936 C 157.252 103.641,156.937 103.901,155.892 105.057 M231.679 105.725 L 229.198 105.975 231.489 106.035 C 232.748 106.068,234.036 105.929,234.351 105.725 C 234.666 105.522,234.752 105.382,234.542 105.415 C 234.332 105.448,233.044 105.588,231.679 105.725 M201.718 106.713 L 200.573 107.697 201.908 106.835 C 203.622 105.729,203.626 105.725,203.212 105.727 C 203.020 105.728,202.347 106.172,201.718 106.713 M152.673 108.205 C 152.181 108.729,151.850 109.221,151.939 109.299 C 152.027 109.377,152.499 108.949,152.987 108.347 C 154.080 106.999,153.887 106.912,152.673 108.205 M214.122 110.192 C 214.437 110.307,215.210 110.851,215.840 111.403 L 216.985 112.405 215.864 111.164 C 215.247 110.482,214.474 109.937,214.146 109.954 C 213.632 109.980,213.629 110.013,214.122 110.192 M247.495 111.164 L 246.374 112.405 247.615 111.284 C 248.297 110.667,248.855 110.109,248.855 110.043 C 248.855 109.748,248.540 110.008,247.495 111.164 M172.820 111.763 C 172.460 111.906,173.613 112.023,175.382 112.023 C 177.150 112.023,178.303 111.906,177.944 111.763 C 177.584 111.621,176.431 111.504,175.382 111.504 C 174.332 111.504,173.179 111.621,172.820 111.763 M244.847 113.216 C 244.161 113.800,244.021 114.032,244.497 113.795 C 245.197 113.448,246.509 112.191,246.135 112.227 C 246.056 112.235,245.477 112.680,244.847 113.216 M218.511 113.555 C 219.366 114.256,222.545 115.938,221.947 115.372 C 221.737 115.174,220.706 114.543,219.656 113.970 C 218.607 113.398,218.092 113.211,218.511 113.555 M166.221 114.504 C 165.592 114.921,165.248 115.259,165.458 115.256 C 165.841 115.250,167.916 113.763,167.557 113.751 C 167.452 113.748,166.851 114.087,166.221 114.504 M229.866 117.456 C 230.864 117.535,232.495 117.535,233.492 117.456 C 234.490 117.377,233.674 117.313,231.679 117.313 C 229.685 117.313,228.869 117.377,229.866 117.456 M160.749 121.200 C 160.505 121.735,160.312 122.380,160.320 122.632 C 160.328 122.885,160.589 122.507,160.899 121.793 C 161.551 120.291,161.413 119.743,160.749 121.200 M190.708 124.618 C 190.836 125.458,191.004 126.217,191.081 126.304 C 191.370 126.632,191.154 124.588,190.822 123.855 C 190.581 123.323,190.546 123.554,190.708 124.618 M159.675 127.481 C 159.675 129.265,159.741 129.995,159.821 129.103 C 159.902 128.211,159.902 126.751,159.821 125.859 C 159.741 124.967,159.675 125.697,159.675 127.481 M205.087 127.672 C 205.089 129.141,205.158 129.696,205.240 128.904 C 205.323 128.112,205.322 126.910,205.237 126.232 C 205.153 125.554,205.085 126.202,205.087 127.672 M145.878 131.870 C 145.878 132.290,146.015 133.063,146.183 133.588 C 146.425 134.343,146.489 134.383,146.489 133.779 C 146.489 133.359,146.351 132.586,146.183 132.061 C 145.941 131.306,145.878 131.266,145.878 131.870 M161.794 135.687 C 162.437 136.932,162.966 137.622,162.963 137.214 C 162.961 137.004,162.609 136.403,162.180 135.878 C 161.661 135.244,161.532 135.180,161.794 135.687 M147.536 138.263 C 147.679 138.736,147.953 139.290,148.145 139.495 C 148.337 139.700,148.301 139.314,148.065 138.636 C 147.581 137.250,147.135 136.935,147.536 138.263 M186.239 138.836 L 184.924 140.267 186.355 138.952 C 187.142 138.228,187.786 137.584,187.786 137.521 C 187.786 137.229,187.463 137.504,186.239 138.836 M231.207 137.675 C 231.682 137.766,232.369 137.762,232.733 137.667 C 233.098 137.571,232.710 137.497,231.870 137.501 C 231.031 137.505,230.732 137.583,231.207 137.675 M163.359 137.906 C 163.359 137.971,163.917 138.530,164.599 139.146 L 165.840 140.267 164.719 139.027 C 163.674 137.870,163.359 137.611,163.359 137.906 M227.195 138.049 C 227.562 138.145,228.163 138.145,228.531 138.049 C 228.898 137.953,228.597 137.875,227.863 137.875 C 227.128 137.875,226.827 137.953,227.195 138.049 M234.828 138.049 C 235.196 138.145,235.797 138.145,236.164 138.049 C 236.531 137.953,236.231 137.875,235.496 137.875 C 234.761 137.875,234.461 137.953,234.828 138.049 M216.010 143.798 L 214.695 145.229 216.126 143.914 C 217.458 142.689,217.733 142.366,217.441 142.366 C 217.378 142.366,216.733 143.010,216.010 143.798 M247.710 144.466 C 248.850 145.620,249.869 146.565,249.974 146.565 C 250.079 146.565,249.232 145.620,248.092 144.466 C 246.951 143.311,245.933 142.366,245.828 142.366 C 245.723 142.366,246.570 143.311,247.710 144.466 M174.718 143.400 C 175.193 143.491,175.880 143.488,176.245 143.392 C 176.610 143.296,176.221 143.222,175.382 143.226 C 174.542 143.230,174.243 143.308,174.718 143.400 M203.053 149.376 C 203.053 149.480,203.569 149.933,204.198 150.382 C 204.828 150.830,205.344 151.111,205.344 151.006 C 205.344 150.901,204.828 150.448,204.198 150.000 C 203.569 149.552,203.053 149.271,203.053 149.376 M228.435 149.618 C 227.954 149.825,227.883 149.946,228.244 149.946 C 228.559 149.946,229.160 149.799,229.580 149.618 C 230.061 149.412,230.132 149.290,229.771 149.290 C 229.456 149.290,228.855 149.438,228.435 149.618 M233.779 149.618 C 234.198 149.799,234.800 149.946,235.115 149.946 C 235.475 149.946,235.405 149.825,234.924 149.618 C 234.504 149.438,233.903 149.290,233.588 149.290 C 233.227 149.290,233.297 149.412,233.779 149.618 M193.881 150.489 C 193.349 150.955,192.490 151.644,191.972 152.020 C 191.067 152.679,191.079 152.679,192.294 152.020 C 192.989 151.644,193.920 150.949,194.364 150.477 C 195.392 149.384,195.135 149.390,193.881 150.489 M224.027 152.162 C 223.176 152.931,222.302 153.918,222.086 154.356 C 221.870 154.794,222.144 154.601,222.694 153.928 C 223.245 153.254,224.246 152.268,224.920 151.737 C 225.594 151.206,226.017 150.770,225.860 150.768 C 225.703 150.765,224.878 151.393,224.027 152.162 M206.679 152.066 C 207.309 152.607,207.982 153.050,208.174 153.052 C 208.588 153.054,208.584 153.050,206.870 151.944 L 205.534 151.082 206.679 152.066 M238.550 151.646 C 238.550 151.712,239.108 152.270,239.790 152.887 L 241.031 154.008 239.910 152.767 C 238.865 151.611,238.550 151.351,238.550 151.646 M180.407 156.743 C 180.055 157.096,180.085 170.905,180.439 171.125 C 180.596 171.222,180.675 168.113,180.613 164.215 C 180.526 158.734,180.613 157.056,180.995 156.814 C 181.274 156.636,181.309 156.498,181.075 156.494 C 180.848 156.491,180.547 156.603,180.407 156.743 M208.875 157.824 C 208.879 158.664,208.957 158.963,209.049 158.488 C 209.140 158.013,209.136 157.326,209.041 156.961 C 208.945 156.596,208.871 156.985,208.875 157.824 M254.308 158.206 C 254.311 159.256,254.385 159.640,254.472 159.060 C 254.560 158.479,254.558 157.621,254.467 157.151 C 254.377 156.682,254.305 157.156,254.308 158.206 M220.420 158.015 C 220.275 158.675,220.236 159.294,220.333 159.392 C 220.430 159.489,220.620 159.020,220.754 158.349 C 221.072 156.758,220.764 156.450,220.420 158.015 M242.613 158.397 C 242.915 160.043,243.132 160.354,243.124 159.128 C 243.121 158.621,242.949 157.948,242.743 157.634 C 242.479 157.231,242.440 157.457,242.613 158.397 M242.792 161.896 C 242.768 162.246,242.649 162.848,242.528 163.232 C 242.320 163.895,242.332 163.896,242.745 163.251 C 242.985 162.877,243.104 162.276,243.009 161.915 C 242.854 161.325,242.832 161.323,242.792 161.896 M254.302 162.977 C 254.302 163.922,254.377 164.308,254.468 163.836 C 254.559 163.364,254.559 162.591,254.468 162.118 C 254.377 161.646,254.302 162.032,254.302 162.977 M208.883 163.359 C 208.883 164.303,208.957 164.690,209.048 164.218 C 209.139 163.745,209.139 162.972,209.048 162.500 C 208.957 162.028,208.883 162.414,208.883 163.359 M225.001 169.849 C 225.257 170.263,227.481 171.502,227.481 171.231 C 227.481 171.141,226.869 170.707,226.122 170.266 C 225.375 169.825,224.870 169.638,225.001 169.849 M251.527 171.756 C 251.098 172.595,250.834 173.282,250.939 173.282 C 251.044 173.282,251.480 172.595,251.908 171.756 C 252.337 170.916,252.601 170.229,252.496 170.229 C 252.391 170.229,251.955 170.916,251.527 171.756 M229.140 171.845 C 229.382 172.000,230.525 172.126,231.679 172.126 C 232.834 172.126,233.977 172.000,234.219 171.845 C 234.462 171.691,233.319 171.565,231.679 171.565 C 230.040 171.565,228.897 171.691,229.140 171.845 M186.450 173.480 C 186.870 173.822,187.557 174.270,187.977 174.477 L 188.740 174.851 187.977 174.230 C 187.557 173.888,186.870 173.440,186.450 173.233 L 185.687 172.859 186.450 173.480 M161.985 174.746 C 161.166 175.340,160.239 176.156,159.924 176.559 C 159.609 176.961,159.956 176.775,160.696 176.145 C 161.436 175.515,162.466 174.708,162.986 174.352 C 163.506 173.996,163.828 173.695,163.702 173.684 C 163.576 173.673,162.803 174.151,161.985 174.746 M214.122 175.692 C 214.122 175.758,214.680 176.316,215.363 176.932 L 216.603 178.053 215.482 176.813 C 214.437 175.657,214.122 175.397,214.122 175.692 M247.495 177.195 L 246.374 178.435 247.615 177.314 C 248.297 176.698,248.855 176.139,248.855 176.074 C 248.855 175.779,248.540 176.038,247.495 177.195 M244.695 179.231 C 243.982 179.738,243.586 180.153,243.815 180.153 C 244.045 180.153,244.714 179.729,245.303 179.211 C 246.652 178.024,246.382 178.033,244.695 179.231 M239.885 181.884 C 238.931 182.343,238.899 182.396,239.695 182.202 C 240.776 181.938,241.992 181.318,241.412 181.327 C 241.202 181.330,240.515 181.580,239.885 181.884 M174.523 182.334 C 175.100 182.422,176.045 182.422,176.622 182.334 C 177.199 182.247,176.727 182.175,175.573 182.175 C 174.418 182.175,173.946 182.247,174.523 182.334 M229.688 183.488 C 230.798 183.565,232.515 183.564,233.505 183.486 C 234.495 183.408,233.588 183.345,231.489 183.346 C 229.389 183.347,228.579 183.411,229.688 183.488 M183.015 185.496 C 183.835 186.336,184.592 187.023,184.697 187.023 C 184.802 187.023,184.217 186.336,183.397 185.496 C 182.577 184.656,181.820 183.969,181.715 183.969 C 181.610 183.969,182.195 184.656,183.015 185.496 M152.418 193.511 C 152.418 195.086,152.486 195.730,152.568 194.943 C 152.650 194.156,152.650 192.867,152.568 192.080 C 152.486 191.293,152.418 191.937,152.418 193.511 M198.220 193.511 C 198.220 195.086,198.287 195.730,198.370 194.943 C 198.452 194.156,198.452 192.867,198.370 192.080 C 198.287 191.293,198.220 191.937,198.220 193.511 M186.745 193.511 C 186.745 194.456,186.820 194.843,186.911 194.370 C 187.002 193.898,187.002 193.125,186.911 192.653 C 186.820 192.180,186.745 192.567,186.745 193.511 M165.414 199.047 C 165.710 199.677,166.350 200.536,166.837 200.955 C 167.691 201.692,167.689 201.677,166.780 200.528 C 166.263 199.874,165.623 199.015,165.357 198.620 C 165.072 198.195,165.095 198.370,165.414 199.047 M172.388 204.676 C 172.615 205.044,177.913 205.039,178.495 204.670 C 178.738 204.515,177.424 204.389,175.575 204.389 C 173.725 204.389,172.291 204.518,172.388 204.676 M188.740 212.071 C 188.054 212.655,187.914 212.887,188.390 212.650 C 189.090 212.303,190.402 211.046,190.028 211.082 C 189.949 211.090,189.370 211.535,188.740 212.071 M172.350 216.462 C 172.968 216.595,174.332 216.704,175.382 216.704 C 176.431 216.704,177.796 216.595,178.413 216.462 C 179.031 216.330,177.667 216.221,175.382 216.221 C 173.096 216.221,171.732 216.330,172.350 216.462 M205.621 249.512 C 206.299 249.596,207.501 249.598,208.293 249.515 C 209.085 249.433,208.531 249.364,207.061 249.362 C 205.592 249.360,204.944 249.428,205.621 249.512 M211.137 251.590 C 211.096 252.907,210.882 253.829,210.592 253.946 C 210.218 254.096,210.221 254.145,210.604 254.168 C 211.307 254.212,211.516 253.406,211.351 251.287 L 211.206 249.427 211.137 251.590 M220.316 257.706 C 220.224 266.438,220.334 267.008,221.796 265.354 C 222.479 264.580,222.509 264.486,221.917 264.984 C 221.480 265.350,221.011 265.649,220.874 265.649 C 220.738 265.649,220.576 261.999,220.515 257.538 L 220.404 249.427 220.316 257.706 M143.976 264.408 C 144.022 271.913,144.107 275.906,144.165 273.282 C 144.434 261.222,144.440 250.763,144.179 250.763 C 144.022 250.763,143.930 256.904,143.976 264.408 M207.543 253.705 C 208.017 253.796,208.704 253.793,209.069 253.697 C 209.434 253.602,209.046 253.527,208.206 253.531 C 207.366 253.536,207.068 253.614,207.543 253.705 M204.951 254.982 C 203.996 256.767,204.566 257.433,207.156 257.556 L 209.542 257.670 209.542 259.541 L 209.542 261.412 207.377 261.527 C 205.847 261.608,205.168 261.809,205.058 262.214 C 204.950 262.613,205.002 262.649,205.227 262.332 C 205.405 262.082,206.492 261.825,207.642 261.760 L 209.733 261.641 209.733 259.542 L 209.733 257.443 207.347 257.329 C 204.791 257.207,204.396 256.732,205.357 254.937 C 205.574 254.531,205.666 254.198,205.561 254.198 C 205.456 254.198,205.182 254.551,204.951 254.982 M198.562 256.107 C 198.562 256.842,198.640 257.142,198.736 256.775 C 198.832 256.407,198.832 255.806,198.736 255.439 C 198.640 255.072,198.562 255.372,198.562 256.107 M178.535 257.140 C 179.010 257.231,179.697 257.228,180.062 257.132 C 180.427 257.037,180.038 256.962,179.198 256.966 C 178.359 256.971,178.060 257.049,178.535 257.140 M182.352 257.140 C 182.827 257.231,183.514 257.228,183.878 257.132 C 184.243 257.037,183.855 256.962,183.015 256.966 C 182.176 256.971,181.877 257.049,182.352 257.140 M245.329 257.140 C 245.804 257.231,246.491 257.228,246.856 257.132 C 247.221 257.037,246.832 256.962,245.992 256.966 C 245.153 256.971,244.854 257.049,245.329 257.140 M249.146 257.140 C 249.620 257.231,250.307 257.228,250.672 257.132 C 251.037 257.037,250.649 256.962,249.809 256.966 C 248.969 256.971,248.671 257.049,249.146 257.140 M185.528 257.389 C 185.615 257.464,186.202 257.641,186.832 257.782 C 187.668 257.969,187.823 257.934,187.405 257.651 C 186.889 257.302,185.145 257.059,185.528 257.389 M195.874 257.581 C 194.613 258.380,195.483 261.611,197.026 261.860 C 197.804 261.986,198.352 261.945,198.244 261.769 C 198.135 261.594,197.532 261.450,196.903 261.450 C 195.140 261.450,195.351 257.965,197.137 257.585 C 198.166 257.367,198.186 257.338,197.328 257.303 C 196.803 257.281,196.149 257.406,195.874 257.581 M227.254 258.111 C 226.527 258.969,226.528 258.969,227.320 258.302 C 227.945 257.776,228.831 257.634,231.482 257.634 L 234.851 257.634 234.124 258.492 L 233.397 259.351 234.247 258.632 C 235.554 257.526,234.975 257.252,231.334 257.252 C 228.327 257.252,227.906 257.340,227.254 258.111 M173.378 257.886 C 172.406 258.279,172.759 262.603,173.760 262.551 C 174.406 262.518,174.453 262.464,173.950 262.332 C 173.429 262.196,173.282 261.748,173.282 260.296 C 173.282 258.926,173.459 258.332,173.950 258.046 C 174.633 257.648,174.239 257.539,173.378 257.886 M255.153 258.261 C 257.096 259.985,257.812 260.488,257.063 259.602 C 256.647 259.110,255.961 258.531,255.539 258.315 C 255.116 258.099,254.943 258.074,255.153 258.261 M160.142 260.651 L 159.025 262.023 160.313 260.795 C 161.022 260.119,161.525 259.502,161.431 259.423 C 161.337 259.344,160.757 259.896,160.142 260.651 M225.890 259.828 C 224.157 261.879,222.382 264.238,222.730 264.029 C 223.189 263.754,226.851 259.160,226.611 259.160 C 226.525 259.160,226.200 259.461,225.890 259.828 M179.103 261.332 C 179.470 261.428,180.072 261.428,180.439 261.332 C 180.806 261.236,180.506 261.157,179.771 261.157 C 179.036 261.157,178.736 261.236,179.103 261.332 M245.897 261.332 C 246.264 261.428,246.865 261.428,247.233 261.332 C 247.600 261.236,247.300 261.157,246.565 261.157 C 245.830 261.157,245.530 261.236,245.897 261.332 M251.454 262.786 C 251.647 263.206,251.901 263.807,252.018 264.122 C 252.201 264.617,252.234 264.614,252.260 264.100 C 252.277 263.772,252.023 263.171,251.697 262.764 C 251.112 262.035,251.109 262.035,251.454 262.786 M198.634 270.229 C 198.634 274.532,198.690 276.293,198.758 274.141 C 198.826 271.990,198.826 268.469,198.758 266.317 C 198.690 264.165,198.634 265.926,198.634 270.229 M191.761 270.611 C 191.761 274.494,191.818 276.083,191.887 274.141 C 191.957 272.199,191.957 269.022,191.887 267.080 C 191.818 265.138,191.761 266.727,191.761 270.611 M248.092 264.885 L 246.374 265.153 247.901 265.165 C 248.740 265.171,249.943 265.046,250.573 264.885 C 252.099 264.497,250.591 264.497,248.092 264.885 M180.439 265.155 C 180.911 265.246,181.684 265.246,182.156 265.155 C 182.629 265.064,182.242 264.989,181.298 264.989 C 180.353 264.989,179.967 265.064,180.439 265.155 M243.321 265.649 C 242.839 265.856,242.769 265.977,243.130 265.977 C 243.445 265.977,244.046 265.829,244.466 265.649 C 244.947 265.442,245.017 265.321,244.656 265.321 C 244.342 265.321,243.740 265.468,243.321 265.649 M153.427 268.309 C 153.871 268.932,154.429 269.563,154.667 269.710 C 154.905 269.858,154.619 269.347,154.032 268.577 C 152.756 266.904,152.275 266.691,153.427 268.309 M171.904 268.905 C 171.556 269.436,171.340 269.941,171.425 270.025 C 171.510 270.110,171.869 269.676,172.222 269.059 C 173.010 267.687,172.776 267.574,171.904 268.905 M182.443 268.471 C 182.443 268.554,183.130 268.688,183.969 268.768 C 184.809 268.848,185.496 268.780,185.496 268.617 C 185.496 268.454,184.809 268.321,183.969 268.321 C 183.130 268.321,182.443 268.388,182.443 268.471 M250.477 268.584 L 251.908 268.748 251.908 270.812 C 251.908 272.672,251.804 272.933,250.859 273.446 C 250.281 273.759,249.986 274.022,250.201 274.031 C 251.571 274.084,252.326 272.824,252.213 270.672 L 252.099 268.511 250.573 268.466 L 249.046 268.420 250.477 268.584 M178.597 269.818 C 177.261 271.154,177.166 272.516,178.340 273.510 C 179.198 274.236,179.198 274.236,178.531 273.443 C 177.358 272.050,177.846 270.295,179.685 269.297 C 180.257 268.987,180.497 268.726,180.219 268.718 C 179.940 268.709,179.210 269.204,178.597 269.818 M244.737 270.241 C 244.210 271.086,244.121 272.760,244.587 273.049 C 244.759 273.155,244.826 272.734,244.734 272.114 C 244.643 271.493,244.785 270.725,245.049 270.407 C 245.313 270.089,245.455 269.755,245.364 269.665 C 245.274 269.574,244.992 269.834,244.737 270.241 M231.507 272.042 C 233.490 275.105,234.733 276.867,234.733 276.612 C 234.733 276.250,231.247 270.992,231.007 270.992 C 230.909 270.992,231.134 271.465,231.507 272.042 M156.705 272.710 C 158.015 274.428,158.271 274.430,157.160 272.715 C 156.686 271.983,156.160 271.381,155.992 271.379 C 155.824 271.376,156.145 271.975,156.705 272.710 M220.364 274.618 C 220.363 276.508,220.428 277.329,220.508 276.443 C 220.588 275.557,220.589 274.011,220.510 273.008 C 220.431 272.004,220.366 272.729,220.364 274.618 M238.168 274.322 C 238.168 274.543,238.522 275.130,238.954 275.626 L 239.740 276.527 239.069 275.382 C 238.187 273.875,238.168 273.852,238.168 274.322 M172.137 275.692 C 172.137 275.758,172.696 276.316,173.378 276.932 L 174.618 278.053 173.497 276.813 C 172.452 275.657,172.137 275.397,172.137 275.692 M184.138 276.548 C 183.418 277.125,183.420 277.130,184.206 276.752 C 184.650 276.538,185.123 276.471,185.255 276.604 C 185.388 276.736,185.496 276.644,185.496 276.399 C 185.496 275.789,185.020 275.841,184.138 276.548 M147.519 277.863 L 144.466 278.104 147.401 278.174 C 149.027 278.213,150.442 278.074,150.573 277.863 C 150.702 277.653,150.755 277.512,150.690 277.551 C 150.626 277.589,149.198 277.730,147.519 277.863 M163.073 278.143 C 164.070 278.222,165.701 278.222,166.698 278.143 C 167.696 278.065,166.880 278.000,164.885 278.000 C 162.891 278.000,162.075 278.065,163.073 278.143 M187.319 278.143 C 188.217 278.223,189.591 278.222,190.373 278.140 C 191.154 278.058,190.420 277.992,188.740 277.993 C 187.061 277.995,186.422 278.062,187.319 278.143 M200.278 278.138 C 200.955 278.222,202.158 278.224,202.950 278.141 C 203.741 278.059,203.187 277.990,201.718 277.988 C 200.248 277.986,199.600 278.054,200.278 278.138 M215.927 278.138 C 216.604 278.222,217.806 278.224,218.598 278.141 C 219.390 278.059,218.836 277.990,217.366 277.988 C 215.897 277.986,215.249 278.054,215.927 278.138 M230.057 278.142 C 230.949 278.222,232.409 278.222,233.302 278.142 C 234.194 278.062,233.464 277.996,231.679 277.996 C 229.895 277.996,229.165 278.062,230.057 278.142 M253.713 278.138 C 254.390 278.222,255.593 278.224,256.385 278.141 C 257.177 278.059,256.622 277.990,255.153 277.988 C 253.683 277.986,253.035 278.054,253.713 278.138 " stroke="none" fill="#747474" fill-rule="evenodd"></path></g></svg>
